<svg width="18" height="18" viewBox="0 0 18 18" fill="none" xmlns="http://www.w3.org/2000/svg">
<path d="M0 1.99134C0 1.41413 0.202708 0.937939 0.608108 0.56277C1.01351 0.187584 1.54055 0 2.18919 0C2.82626 0 3.34169 0.184693 3.73552 0.554112C4.14092 0.935065 4.34363 1.43145 4.34363 2.04329C4.34363 2.5974 4.14672 3.05915 3.7529 3.42857C3.3475 3.80952 2.81467 4 2.15444 4H2.13707C1.49999 4 0.984562 3.80952 0.590734 3.42857C0.196905 3.04762 0 2.56854 0 1.99134ZM0.225869 17.1429V5.57576H4.08301V17.1429H0.225869ZM6.22008 17.1429H10.0772V10.684C10.0772 10.2799 10.1236 9.96824 10.2162 9.74891C10.3784 9.35641 10.6245 9.02452 10.9546 8.75324C11.2847 8.48195 11.6988 8.34632 12.1969 8.34632C13.4942 8.34632 14.1429 9.21788 14.1429 10.961V17.1429H18V10.5108C18 8.8023 17.5946 7.50649 16.7838 6.62337C15.973 5.74026 14.9015 5.2987 13.5695 5.2987C12.0753 5.2987 10.9112 5.93939 10.0772 7.22078V7.25541H10.0598L10.0772 7.22078V5.57576H6.22008C6.24324 5.94516 6.25483 7.09378 6.25483 9.02164C6.25483 10.9495 6.24324 13.6565 6.22008 17.1429Z" fill="#8170F2"/>
</svg>
