<svg width="20" height="14" viewBox="0 0 20 14" fill="none" xmlns="http://www.w3.org/2000/svg">
<path d="M10.3412 13.9816L6.278 13.9057C4.96243 13.8792 3.64358 13.9321 2.35381 13.6579C0.391767 13.2483 0.252769 11.2399 0.107322 9.55524C-0.0930886 7.18682 -0.0155035 4.77542 0.362698 2.42677C0.576205 1.10893 1.41644 0.322568 2.71584 0.236997C7.10226 -0.0735542 11.5179 -0.0367507 15.8946 0.108132C16.3568 0.121414 16.8222 0.194008 17.278 0.276639C19.5278 0.679655 19.5827 2.95561 19.7286 4.87153C19.874 6.80723 19.8126 8.75286 19.5346 10.6754C19.3116 12.2672 18.8848 13.602 17.084 13.7309C14.8277 13.8994 12.6232 14.0351 10.3605 13.9919C10.3606 13.9816 10.3476 13.9816 10.3412 13.9816ZM7.95242 9.95167C9.65274 8.95401 11.3206 7.97298 13.0112 6.98202C11.3077 5.98436 9.64302 5.00334 7.95242 4.01237V9.95167Z" fill="#8170F2"/>
</svg>
