<svg width="41" height="39" viewBox="0 0 41 39" fill="none" xmlns="http://www.w3.org/2000/svg">
<path d="M31.6075 23.3449H26.7029C26.4057 23.3449 26.2075 23.543 26.2075 23.8403C26.2075 24.1375 26.4057 24.3357 26.7029 24.3357H31.6075C31.9048 24.3357 32.103 24.1375 32.103 23.8403C32.103 23.543 31.8553 23.3449 31.6075 23.3449Z" fill="white"/>
<path d="M8.22388 25.7228C8.52113 25.7228 8.7193 25.5247 8.7193 25.2274V13.8824C8.7193 13.5852 8.52113 13.387 8.22388 13.387C7.92663 13.387 7.72847 13.5852 7.72847 13.8824V25.2274C7.72847 25.4751 7.92663 25.7228 8.22388 25.7228Z" fill="white"/>
<path d="M5.64774 38.6037C5.94499 38.8514 6.29178 39 6.68811 39H9.75969C10.6019 39 11.2955 38.3064 11.2955 37.4642V6.55027L15.7047 37.6624C15.7542 38.0587 15.9524 38.455 16.2992 38.7027C16.5469 38.9009 16.8937 39 17.2405 39C17.29 39 17.3891 39 17.4386 39L20.5102 38.5541C20.9065 38.5046 21.3029 38.3064 21.5506 37.9596C21.7983 37.6128 21.8974 37.2165 21.8478 36.8202L16.7946 1.34841C16.6955 0.5062 15.9028 -0.0882987 15.0606 0.0107844L11.9891 0.456658C11.6423 0.5062 11.345 0.654824 11.0973 0.902532C10.8496 0.407116 10.3046 0.0603257 9.75969 0.0603257H6.68811C6.29178 0.0603257 5.94499 0.20895 5.64774 0.456658C5.35049 0.20895 5.0037 0.0603257 4.60736 0.0603257H1.53579C0.693582 0.0603257 0 0.753908 0 1.59611V37.4147C0 38.2569 0.693582 38.9504 1.53579 38.9504H4.60736C5.0037 39 5.40003 38.8514 5.64774 38.6037ZM20.857 36.9688C20.857 37.1174 20.857 37.266 20.7579 37.3651C20.6588 37.4642 20.5597 37.5633 20.4111 37.5633L17.3395 38.0092C17.1909 38.0092 17.0423 38.0092 16.9432 37.9101C16.8441 37.811 16.745 37.7119 16.745 37.5633L16.2992 34.5908L20.4607 33.9963L20.857 36.9688ZM20.312 33.0055L16.1505 33.6L15.8533 31.4697L20.0148 30.8752L20.312 33.0055ZM16.8441 8.58147L19.8662 29.8348L15.7047 30.4293L12.6826 9.17597L16.8441 8.58147ZM16.6955 7.64018L12.534 8.23468L12.2368 6.1044L16.3983 5.5099L16.6955 7.64018ZM12.1377 1.44749L15.2093 1.00162C15.2588 1.00162 15.2588 1.00162 15.3083 1.00162C15.556 1.00162 15.8038 1.19978 15.8533 1.49703L16.2992 4.51907L12.1377 5.11356L11.6423 2.09153C11.6423 1.79428 11.8404 1.49703 12.1377 1.44749ZM10.3046 33.4513H6.19269V31.2715H10.3046V33.4513ZM10.3046 30.3302H6.19269V8.82918H10.3046V30.3302ZM10.3046 7.83835H6.19269V5.65852H10.3046V7.83835ZM6.68811 1.1007H9.75969C10.0569 1.1007 10.3046 1.34841 10.3046 1.64566V4.66769H6.19269V1.64566C6.19269 1.59611 6.19269 1.54657 6.19269 1.44749C6.24224 1.24932 6.4404 1.1007 6.68811 1.1007ZM6.19269 37.4642V34.4917H10.3046V37.4642C10.3046 37.7614 10.0569 38.0092 9.75969 38.0092H6.68811C6.4404 38.0092 6.24224 37.8605 6.19269 37.6128C6.14315 37.5633 6.19269 37.5137 6.19269 37.4642ZM0.990831 1.64566C0.990831 1.34841 1.23854 1.1007 1.53579 1.1007H4.60736C4.85507 1.1007 5.05324 1.24932 5.10278 1.49703C5.10278 1.54657 5.10278 1.59611 5.10278 1.6952V4.66769H0.990831V1.64566ZM0.990831 5.65852H5.10278V7.83835H0.990831V5.65852ZM0.990831 8.82918H5.10278V30.3302H0.990831V8.82918ZM0.990831 31.321H5.10278V33.5009H0.990831V31.321ZM0.990831 37.4642V34.4917H5.10278V37.4642C5.10278 37.5137 5.10278 37.5633 5.10278 37.6624C5.0037 37.8605 4.80553 38.0587 4.60736 38.0587H1.53579C1.23854 38.0092 0.990831 37.7614 0.990831 37.4642Z" fill="white"/>
<path d="M16.5469 25.1779C16.5964 25.4256 16.7946 25.6238 17.0423 25.6238H17.0918C17.3395 25.5742 17.5377 25.3265 17.4882 25.0788L15.9028 13.8329C15.8533 13.5852 15.6056 13.387 15.3579 13.4365C15.1102 13.4861 14.912 13.7338 14.9615 13.9815L16.5469 25.1779Z" fill="white"/>
<path d="M3.07159 13.387C2.77434 13.387 2.57618 13.5852 2.57618 13.8824V25.2274C2.57618 25.5247 2.77434 25.7228 3.07159 25.7228C3.36884 25.7228 3.56701 25.5247 3.56701 25.2274V13.8824C3.56701 13.5852 3.36884 13.387 3.07159 13.387Z" fill="white"/>
<path d="M39.1378 0.109838H36.0663C35.6699 0.109838 35.2736 0.258462 34.9763 0.555712C34.6791 0.308004 34.3323 0.109838 33.8864 0.109838H24.3744C23.5322 0.109838 22.8387 0.803419 22.8387 1.64563V37.4642C22.8387 38.3064 23.5322 39 24.3744 39H33.8864C34.2828 39 34.6791 38.8513 34.9763 38.5541C35.2736 38.8018 35.6204 39 36.0663 39H39.1378C39.98 39 40.6736 38.3064 40.6736 37.4642V1.64563C40.6736 0.803419 39.98 0.109838 39.1378 0.109838ZM34.4809 37.4642C34.4809 37.7614 34.2332 38.0091 33.936 38.0091H24.3744C24.0772 38.0091 23.8295 37.7614 23.8295 37.4642V34.4917H34.4809V37.4642ZM34.4809 33.4513H23.8295V31.2715H34.4809V33.4513ZM34.4809 30.3302H23.8295V8.82915H34.4809V30.3302ZM34.4809 7.83832H23.8295V5.65849H34.4809V7.83832ZM34.4809 4.66766H23.8295V1.64563C23.8295 1.34838 24.0772 1.10067 24.3744 1.10067H33.8864C34.1837 1.10067 34.4314 1.34838 34.4314 1.64563V4.66766H34.4809ZM39.6828 37.4642C39.6828 37.7614 39.4351 38.0091 39.1378 38.0091H36.0663C35.769 38.0091 35.5213 37.7614 35.5213 37.4642V34.4917H39.7323V37.4642H39.6828ZM39.6828 33.4513H35.4718V31.2715H39.6828V33.4513ZM39.6828 30.3302H35.4718V8.82915H39.6828V30.3302ZM39.6828 7.83832H35.4718V5.65849H39.6828V7.83832ZM39.6828 4.66766H35.4718V1.64563C35.4718 1.34838 35.7195 1.10067 36.0167 1.10067H39.0883C39.3855 1.10067 39.6332 1.34838 39.6332 1.64563V4.66766H39.6828Z" fill="white"/>
<path d="M37.602 25.7228C37.8993 25.7228 38.0975 25.5247 38.0975 25.2274V13.8824C38.0975 13.5852 37.8993 13.387 37.602 13.387C37.3048 13.387 37.1066 13.5852 37.1066 13.8824V25.2274C37.1066 25.4751 37.3048 25.7228 37.602 25.7228Z" fill="white"/>
<path d="M29.1304 21.9577C31.1121 21.9577 32.747 20.3228 32.747 18.3412C32.747 16.3595 31.1121 14.7246 29.1304 14.7246C27.1488 14.7246 25.5139 16.3595 25.5139 18.3412C25.5139 20.3228 27.1488 21.9577 29.1304 21.9577ZM29.1304 15.7155C30.5671 15.7155 31.7561 16.9044 31.7561 18.3412C31.7561 19.7779 30.5671 20.9669 29.1304 20.9669C27.6937 20.9669 26.5047 19.7779 26.5047 18.3412C26.5047 16.9044 27.6937 15.7155 29.1304 15.7155Z" fill="white"/>
</svg>
