<svg width="128" height="26" viewBox="0 0 128 26" fill="none" xmlns="http://www.w3.org/2000/svg">
<path d="M92.192 10.6667L90.624 5.504C90.3146 4.49066 88.8853 4.49066 88.5866 5.504L87.008 10.6667H82.2613C81.2266 10.6667 80.8 12 81.6426 12.5973L85.5253 15.3707L84 20.288C83.6906 21.28 84.8426 22.08 85.664 21.4507L89.6 18.464L93.536 21.4614C94.3573 22.0907 95.5093 21.2907 95.2 20.2987L93.6747 15.3813L97.5573 12.608C98.4 12 97.9733 10.6773 96.9387 10.6773H92.192V10.6667Z" fill="#FDAF17"/>
<path d="M117.792 10.6667L116.224 5.504C115.915 4.49066 114.485 4.49066 114.187 5.504L112.608 10.6667H107.861C106.827 10.6667 106.4 12 107.243 12.5973L111.125 15.3707L109.6 20.288C109.291 21.28 110.443 22.08 111.264 21.4507L115.2 18.464L119.136 21.4614C119.957 22.0907 121.109 21.2907 120.8 20.2987L119.275 15.3813L123.157 12.608C124 12 123.573 10.6773 122.539 10.6773H117.792V10.6667Z" fill="#CCCCCC"/>
<path d="M66.592 10.6667L65.024 5.504C64.7147 4.49066 63.2853 4.49066 62.9867 5.504L61.408 10.6667H56.6613C55.6267 10.6667 55.2 12 56.0427 12.5973L59.9253 15.3707L58.4 20.288C58.0907 21.28 59.2427 22.08 60.064 21.4507L64 18.464L67.936 21.4614C68.7574 22.0907 69.9094 21.2907 69.6 20.2987L68.0747 15.3813L71.9574 12.608C72.8 12 72.3734 10.6773 71.3387 10.6773H66.592V10.6667Z" fill="#FDAF17"/>
<path d="M40.992 10.6667L39.424 5.504C39.1147 4.49066 37.6853 4.49066 37.3867 5.504L35.808 10.6667H31.0613C30.0266 10.6667 29.6 12 30.4426 12.5973L34.3253 15.3707L32.8 20.288C32.4906 21.28 33.6427 22.08 34.464 21.4507L38.4 18.464L42.336 21.4614C43.1573 22.0907 44.3093 21.2907 44 20.2987L42.4747 15.3813L46.3573 12.608C47.2 12 46.7733 10.6773 45.7387 10.6773H40.992V10.6667Z" fill="#FDAF17"/>
<path d="M15.392 10.6667L13.824 5.504C13.5146 4.49066 12.0853 4.49066 11.7866 5.504L10.208 10.6667H5.46129C4.42662 10.6667 3.99995 12 4.84262 12.5973L8.72529 15.3707L7.19996 20.288C6.89062 21.28 8.04263 22.08 8.86396 21.4507L12.8 18.464L16.736 21.4614C17.5573 22.0907 18.7093 21.2907 18.4 20.2987L16.8746 15.3813L20.7573 12.608C21.6 12 21.1733 10.6773 20.1386 10.6773H15.392V10.6667Z" fill="#FDAF17"/>
</svg>
