<svg width="548" height="216" viewBox="0 0 548 216" fill="none" xmlns="http://www.w3.org/2000/svg">
<path d="M22.4792 213.825L23.8989 150.878C23.9788 147.783 21.4534 144.409 18.2156 143.748C16.3526 143.363 11.4847 143.26 9.31173 143.797C5.99776 144.693 5.50191 147.661 4.87988 150.43L3.46015 213.376C3.46015 213.376 7.01381 210.651 13.0219 210.704C19.2474 210.702 22.4792 213.825 22.4792 213.825Z" fill="#E7EFF2"/>
<path d="M3.49319 214.444C3.51335 213.593 3.5156 212.67 3.53576 211.819C3.61193 210.262 3.59776 208.651 3.67393 207.094C3.78819 204.759 3.83002 202.442 3.92636 200.034C4.10036 195.454 4.18401 190.819 4.35801 186.239C4.63134 178.02 4.5605 155.045 4.80693 150.448C5.27814 142.718 20.9885 141.909 23.4302 149.918C23.6998 150.697 23.4339 163.297 23.4085 166.302L23.1232 179.445C22.9275 185.492 22.6415 191.484 22.3555 197.476C22.2039 200.281 22.1247 203.069 22.0456 205.857C21.9485 208.573 22.0321 211.397 21.6998 214.094C21.5893 214.89 22.4563 215.599 23.2164 215.565C24.0303 215.48 24.901 214.917 24.7943 214.175C24.5105 211.784 24.6613 209.286 24.6673 206.824C24.6733 204.362 24.7517 201.881 24.8122 199.329C24.9511 194.296 25.09 189.263 25.3014 184.213C25.5553 176.537 25.9361 168.753 25.6472 161.058L25.9474 149.218L26.8392 109.933C26.9355 107.526 25.6377 105.386 23.7224 104.168C23.343 103.877 22.9816 103.659 22.6926 103.423C21.5905 102.696 20.3614 102.077 19.0957 101.621C16.6367 100.691 13.9052 100.213 11.2625 100.405C8.4571 100.561 5.8667 101.586 4.7384 104.172C4.64729 104.425 4.48375 104.696 4.41057 105.022C3.62875 106.523 3.26285 108.151 3.04182 109.744C2.76627 111.427 2.56316 113.092 2.52283 114.793C2.31523 118.305 2.25248 121.781 2.13523 125.347C1.91865 132.552 1.77452 139.74 1.61246 146.854C1.25173 161.247 0.981366 175.693 0.620647 190.086C0.383904 198.142 0.0747181 206.215 0.00076274 214.308C-0.076906 216.48 3.48796 216.598 3.49319 214.444Z" fill="#8170F2"/>
<path d="M21.8658 138.308C21.6493 138.054 21.6859 137.891 21.4148 137.728C21.1258 137.492 20.7823 137.346 20.4209 137.128C19.8064 136.818 19.1194 136.527 18.4503 136.308C17.0218 135.815 15.4477 135.666 13.9095 135.662C12.4437 135.64 10.8867 135.871 9.45602 136.302C8.73169 136.481 8.04322 136.805 7.42717 137.111C6.88355 137.4 5.95985 137.705 5.79557 138.284C5.72239 138.61 5.92101 138.791 6.24658 138.864C6.80737 138.956 7.44211 138.415 7.91329 138.145C8.52934 137.838 9.16331 137.605 9.88763 137.426C11.1735 137.031 12.5855 136.835 13.961 136.803C15.3365 136.77 16.6933 136.973 17.9411 137.356C18.5922 137.503 19.2613 137.722 19.8758 138.031C20.2193 138.177 20.4724 138.268 20.8159 138.414C21.1594 138.56 21.3767 138.506 21.7023 138.579C21.8651 138.616 21.9741 138.435 21.8658 138.308Z" fill="#E7EFF2"/>
<path d="M23.3111 109.345C22.9325 108.746 22.3 108.364 21.74 107.965C21.0171 107.528 20.2219 107.11 19.4445 106.764C17.8174 106.089 16.0813 105.596 14.3265 105.338C11.6129 104.932 8.28103 105.756 6.37613 107.688C5.70483 108.393 6.78832 109.355 7.40512 108.741C9.11064 106.935 11.9713 106.382 14.4318 106.696C16.0238 106.917 17.5247 107.392 19.0435 107.939C19.7305 108.231 20.4175 108.522 21.1224 108.886C21.737 109.196 22.297 109.595 22.9481 109.742C23.2013 109.833 23.4552 109.617 23.3111 109.345Z" fill="#E7EFF2"/>
<path d="M20.2943 152.154C20.2233 159.016 20.2069 165.787 20.1359 172.648C20.0425 181.284 19.6415 189.919 19.3129 198.536C19.121 203.043 18.9112 207.478 18.7917 211.968C18.7357 212.674 19.8938 212.695 19.9498 211.989C20.2232 203.77 20.4786 195.479 20.6615 187.206C20.8624 179.005 21.1358 170.786 21.1739 162.549C21.1642 159.091 21.1545 155.633 20.8371 152.174C20.82 151.794 20.2771 151.774 20.2943 152.154Z" fill="#D8E5E5"/>
<path d="M17.1694 149.774C16.8028 151.71 17.0148 153.811 16.9558 155.748C16.9872 157.74 17.0006 159.659 16.9595 161.668C16.9498 165.67 16.958 169.743 16.8758 173.762C16.7839 181.782 16.5472 189.838 16.1477 197.857C15.8833 202.383 15.7093 206.963 15.3001 211.524C15.262 212.303 16.5829 212.36 16.621 211.582C17.3297 195.489 17.966 179.414 17.987 163.337C17.9743 161.11 17.9437 158.81 17.931 156.584C17.9183 154.357 18.105 152.004 17.5853 149.902C17.6406 149.504 17.2426 149.449 17.1694 149.774Z" fill="#D8E5E5"/>
<path d="M11.3063 149.686C11.1203 151.732 11.1696 153.796 11.1286 155.805C11.0875 157.815 11.0643 159.897 11.0232 161.906C10.8686 165.943 10.714 169.98 10.3967 173.98C9.90679 181.945 9.19963 189.964 8.87253 197.965C8.69852 202.545 8.59694 207.107 8.5678 211.651C8.52971 212.43 9.83275 212.415 9.79841 211.655C9.49228 203.579 10.0733 195.361 10.5452 187.324C11.0896 179.269 11.7244 171.268 11.9611 163.212C12.0029 160.895 12.1351 158.632 12.1045 156.333C12.0918 154.106 12.1337 151.789 11.8133 149.561C11.8865 149.235 11.3795 149.361 11.3063 149.686Z" fill="#D8E5E5"/>
<path d="M14.7811 149.442C14.5952 151.487 14.6445 153.551 14.6034 155.561C14.5623 157.57 14.5392 159.652 14.4981 161.662C14.3435 165.699 14.1889 169.736 13.8715 173.736C13.3817 181.701 12.6745 189.719 12.3474 197.721C12.1734 202.301 12.0718 206.863 12.0427 211.407C12.0046 212.185 13.3076 212.171 13.2733 211.41C12.9671 203.335 13.5481 195.117 14.0201 187.08C14.5645 179.024 15.1992 171.024 15.436 162.968C15.4778 160.651 15.61 158.388 15.5793 156.088C15.5667 153.862 15.6085 151.544 15.2882 149.317C15.2889 149.009 14.7819 149.134 14.7811 149.442Z" fill="#D8E5E5"/>
<path d="M7.4638 151.867C7.51902 158.928 7.70118 165.88 7.44875 172.94C7.17616 180.851 6.59593 188.762 6.10604 196.726C5.78567 201.958 5.46531 207.189 5.05458 212.366C4.99858 213.072 6.24711 213.148 6.28519 212.369C6.74223 203.029 7.36204 193.724 7.90943 184.438C8.2888 177.27 8.66818 170.101 8.66747 162.95C8.67644 159.257 8.66748 155.491 8.00665 151.886C7.91704 151.524 7.46454 151.559 7.4638 151.867Z" fill="#D8E5E5"/>
<path d="M2.10965 125.67C2.42959 125.274 6.30613 123.505 11.1093 122.945M26.4349 128.394C22.3945 123.124 16.2261 122.349 11.1093 122.945M11.1093 0V122.945" stroke="#0D0842"/>
<path d="M84.3084 147.15C84.2369 144.02 85.9861 141.447 88.3274 141.376L93.9421 141.191C96.2111 141.141 98.1399 143.636 98.262 146.673L99.387 189.591L100.558 189.555C100.775 188.702 100.847 187.893 100.876 186.939L98.0745 80.0727C97.9525 76.2486 95.6842 73.1463 93.0322 73.2318L85.77 73.438C83.118 73.5235 80.9928 76.6814 81.1148 80.5056L83.9165 187.371C83.9597 188.304 84.0751 189.215 84.3134 190.01L85.484 189.975L84.3084 147.15Z" fill="#FDAF17"/>
<path d="M84.3732 147.367C84.3016 144.237 86.0509 141.664 88.3922 141.593L94.0069 141.408C96.2758 141.358 98.2047 143.853 98.3268 146.889L99.4591 189.569L101.013 189.498L99.1923 121.654C99.0703 117.83 96.802 114.727 94.15 114.813L86.8878 115.019C84.2358 115.105 82.1107 118.263 82.2327 122.087L84.053 189.931L85.6066 189.859L84.3732 147.367Z" fill="#FDAF17"/>
<path d="M99.3367 188.897L97.617 123.229C97.5021 119.954 95.6239 117.365 93.2826 117.437L87.6679 117.622C85.399 117.671 83.5991 120.338 83.6417 123.634L85.3614 189.302C85.3614 189.302 87.8406 186.275 92.1908 186.074C96.8299 185.787 99.3367 188.897 99.3367 188.897Z" fill="#E7EFF2"/>
<path d="M96.3389 115.811C96.2661 118.197 96.5041 120.568 96.5758 122.91C96.6475 125.252 96.9071 127.696 97.2173 130.045C97.6932 134.788 98.1185 139.624 98.3559 144.359C98.9463 153.952 99.0598 163.531 98.9565 173.174C98.9336 178.617 98.7445 184.031 98.5555 189.446C98.4972 191.354 101.388 191.276 101.446 189.368C102.035 170.045 102.076 150.73 100.107 131.543C99.8551 128.861 99.5089 126.129 98.9458 123.461C98.6282 122.138 98.2599 120.909 97.9423 119.586C97.6246 118.263 97.3286 117.012 96.8664 115.732C96.7581 115.371 96.3029 115.428 96.3389 115.811Z" fill="#FDAF17"/>
<path d="M82.206 76.7906C82.4734 76.6316 82.6685 76.4944 82.9576 76.4078L82.9359 76.3355C82.6685 76.4944 82.4011 76.6533 82.206 76.7906C82.1554 76.8845 82.1337 76.8122 82.206 76.7906Z" fill="#F3B953"/>
<path d="M83.1166 75.0993C81.8302 75.7999 81.0495 77.1369 80.8613 78.6115C80.5935 80.3463 80.4703 82.0378 80.3471 83.7293C80.0428 87.4448 79.8324 91.211 79.6943 94.9555C79.483 102.661 79.6547 110.331 79.8987 117.98C80.0921 125.722 80.5023 133.399 80.6018 141.091C80.7229 148.855 80.9885 156.575 81.442 164.397C81.694 168.655 81.8954 173.007 82.3135 177.294C82.4865 179.448 82.7533 181.653 82.9263 183.807C83.1209 186.034 83.2649 188.354 83.8208 190.473C84.2251 192.085 86.4364 191.58 86.5091 189.982C86.6395 188.052 86.3871 186.158 86.2285 184.315C86.0483 182.399 85.962 180.534 85.854 178.597C85.5875 174.816 85.321 171.035 85.1267 167.232C84.6659 159.649 84.3497 152.023 84.1996 144.425C84.0712 136.9 83.7983 129.418 83.5976 121.914C83.303 114.359 83.0301 106.877 83.0462 99.3088C83.0544 95.1305 83.2287 90.9812 83.4753 86.8103C83.5841 84.8079 83.8375 82.7623 83.9969 80.666C84.0404 80.0227 84.0623 79.307 84.1274 78.7359C84.2432 78.0709 84.1205 77.3986 84.5903 76.8639C85.3854 75.8378 84.2079 74.536 83.1166 75.0993Z" fill="#FDAF17"/>
<path d="M96.1668 76.0742C95.8563 75.3006 95.2783 74.6858 94.6498 74.165C94.0212 73.6443 93.371 73.0512 92.6412 72.7183C90.9216 71.9729 88.9634 72.0081 87.099 72.094C85.4009 72.2088 83.876 72.9021 82.8063 74.3257C81.91 75.5397 80.8183 77.6789 81.9453 79.0746C82.1981 79.3928 82.7473 79.3858 83.0147 79.2269C84.0626 78.519 83.9691 76.8924 84.7642 75.8663C85.5882 74.674 86.8094 74.5444 88.1246 74.4655C89.512 74.365 90.9934 74.3151 92.3806 75.0025C93.5077 75.6103 94.5191 76.883 95.9355 76.6162C96.08 76.5729 96.2101 76.2188 96.1668 76.0742Z" fill="#FDAF17"/>
<path d="M90.3648 74.5823C91.7162 74.0986 93.3346 75.0319 94.1871 76.0371C95.2924 77.3606 95.5665 79.3269 95.7034 81.0981C96.0926 85.5513 96.2651 90.0694 96.5097 94.5659C96.9702 103.725 97.1922 112.877 97.2696 122.072C97.3124 124.581 97.2829 127.111 97.3257 129.619C97.311 130.884 97.3685 132.128 97.3538 133.393C97.3826 134.014 97.433 134.708 97.534 135.308C97.6567 135.981 97.9962 136.588 98.1406 137.333C98.2633 138.005 99.34 137.919 99.4774 137.326C99.6148 136.733 99.8462 136.191 99.9836 135.599C100.121 135.006 100.143 134.29 100.114 133.669C100.129 132.404 100.071 131.16 100.086 129.895C100.065 127.459 99.9715 125.045 99.972 122.681C99.8575 117.83 99.7646 113.052 99.5778 108.223C99.4416 103.3 99.2331 98.3985 99.003 93.4249C98.9096 91.0104 98.7439 88.6176 98.5782 86.2247C98.4559 83.9765 98.3336 81.7283 97.9944 79.545C97.6553 77.3617 96.9115 75.1421 95.2137 73.681C93.5592 72.3646 91.4926 72.0383 89.7581 73.3459C89.151 73.6853 89.5699 74.8205 90.3648 74.5823Z" fill="#FDAF17"/>
<path d="M98.9155 125.991C99.2626 124.784 99.0172 123.439 98.8152 122.239C98.5408 121.061 98.0786 119.781 97.3924 118.805C95.702 116.317 93.1009 115.521 90.3406 115.245C88.9604 115.107 87.5803 114.969 86.2578 115.286C84.7909 115.647 83.7067 116.76 82.9043 118.024C81.4804 120.105 79.3694 124.362 81.7897 126.395C82.2087 126.742 82.9241 126.764 83.2277 126.2C83.5097 125.564 83.6398 125.21 83.7556 124.545C83.8424 124.046 83.9798 123.454 84.1389 122.933C84.4354 121.82 84.9415 120.881 85.5198 119.919C85.9968 119.146 86.5389 118.59 87.4278 118.402C88.4828 118.244 89.6245 118.374 90.6723 118.454C92.6232 118.658 94.2056 119.208 95.347 120.915C96.3944 122.57 96.5673 124.725 97.7159 126.193C98.0121 126.656 98.7058 126.605 98.9155 125.991Z" fill="#FDAF17"/>
<path d="M96.0005 111.264C96.0946 110.527 96.1744 109.479 95.7409 108.821C95.9144 108.611 96.0156 108.423 95.929 108.134C95.4451 106.782 94.0723 106.406 92.8656 106.058C91.5867 105.732 90.3004 105.645 88.9853 105.724C87.7424 105.781 86.2104 105.925 85.1408 106.56C83.6593 107.398 84.3454 109.162 84.663 110.485C84.8363 111.064 85.4649 111.585 86.0863 111.556C87.4738 111.455 88.9768 111.478 90.3353 111.543C91.6937 111.609 93.2184 111.704 94.5407 112.174C95.0826 112.406 95.8848 111.929 96.0005 111.264Z" fill="#E7EFF2"/>
<path d="M86.0792 76.5755C85.6527 77.2548 85.7175 78.2596 85.6451 79.0692C85.616 80.0234 85.5652 80.9053 85.6084 81.8379C85.6007 83.6523 85.6364 85.6114 85.9395 87.4115C86.1849 88.7562 88.1071 88.3378 88.1219 87.0728C88.1295 85.2583 87.8264 83.4582 87.6895 81.6871C87.5957 80.8485 87.5526 79.9159 87.4588 79.0773C87.3867 78.311 87.3436 77.3785 86.9608 76.6265C86.7585 76.2144 86.2816 76.1996 86.0792 76.5755Z" fill="#E7EFF2"/>
<path d="M89.4901 76.6566C88.6297 79.0417 88.8241 82.0562 89.2499 84.5287C89.3726 85.201 89.7627 85.7145 90.4564 85.6642C91.0056 85.6572 91.6199 85.0792 91.5912 84.4575C91.4397 83.1635 91.2666 81.7971 91.1874 80.4814C91.1082 79.1657 91.029 77.85 90.733 76.5993C90.5381 75.9486 89.7215 76.1145 89.4901 76.6566Z" fill="#E7EFF2"/>
<path d="M92.713 76.6364C92.308 78.176 92.5388 79.9978 92.5385 81.5737C92.5383 82.3616 92.6321 83.2002 92.6536 84.0604C92.6751 84.9207 92.6749 85.7087 93.0793 86.5329C93.3972 87.068 94.2788 87.1191 94.5607 86.483C94.8716 85.6808 94.8212 84.9868 94.8214 84.1988C94.7999 83.3386 94.7784 82.4783 94.663 81.5675C94.4971 79.9626 94.577 78.1265 93.9776 76.6515C93.6887 75.9502 92.9011 75.9498 92.713 76.6364Z" fill="#E7EFF2"/>
<path d="M93.5547 122.555C93.4892 124.702 93.7055 127.001 93.8062 129.177C93.8852 131.28 94.0365 133.362 94.1155 135.466C94.2952 139.745 94.5688 144.076 94.7485 148.355C95.1585 156.82 95.1856 165.322 95.4294 173.758C95.5439 178.608 95.6368 183.387 95.6574 188.187C95.6716 189.286 97.3192 189.265 97.305 188.166C97.184 179.614 96.9691 171.012 96.5881 162.38C96.4084 158.101 96.1347 153.77 95.955 149.491C95.7753 145.211 95.5956 140.932 95.322 136.601C95.1563 134.208 94.9907 131.816 94.825 129.423C94.681 127.102 94.5876 124.688 94.2268 122.432C94.1691 121.977 93.5187 122.172 93.5547 122.555Z" fill="#D8E5E5"/>
<path d="M90.7811 119.604C91.3915 137.149 92.0018 154.694 92.4459 172.209C92.5821 177.132 92.7183 182.055 92.8545 186.978C92.8687 188.077 94.4946 187.984 94.5021 186.957C93.964 169.391 93.2092 151.889 92.3604 134.337C92.1302 129.364 91.8495 124.484 91.5471 119.532C91.4171 119.098 90.7234 119.149 90.7811 119.604Z" fill="#D8E5E5"/>
<path d="M87.8982 121.019C87.4064 123.058 87.6949 125.335 87.7523 127.366C87.8313 129.47 87.9103 131.574 87.9893 133.677C88.1184 138.051 88.3198 142.403 88.4489 146.776C88.736 155.357 88.9726 164.032 89.2597 172.613C89.3959 177.535 89.5104 182.386 89.6466 187.309C89.6825 188.48 91.4023 188.438 91.3665 187.266C90.9151 169.989 90.2252 152.705 89.3691 135.391C89.2757 132.977 89.1101 130.584 89.0167 128.169C88.9591 126.926 88.9233 125.755 88.7935 124.533C88.6637 123.311 88.6278 122.14 88.2812 120.983C88.2379 120.839 87.9994 120.832 87.8982 121.019Z" fill="#D8E5E5"/>
<path d="M85.8085 124.561C85.7288 125.609 85.6057 126.512 85.5983 127.539C85.5908 128.565 85.5111 129.613 85.5253 130.712C85.5104 132.765 85.4955 134.818 85.4806 136.871C85.5014 140.883 85.5005 144.823 85.6658 148.792C85.8736 156.845 86.2476 164.927 86.6938 172.987C86.8879 177.578 87.1759 182.219 87.5145 186.766C87.536 187.626 88.8728 187.62 88.7574 186.709C87.6265 170.581 87.2109 154.474 86.7015 138.318C86.6297 135.975 86.5796 133.706 86.4356 131.385C86.3998 130.214 86.3639 129.043 86.3497 127.944C86.3138 126.773 86.2057 125.623 86.0975 124.474C86.0759 124.402 85.8374 124.394 85.8085 124.561Z" fill="#D8E5E5"/>
<path d="M79.6195 98.765C79.6195 98.765 83.7258 95.6278 88.956 95.1841M99.1731 98.765C95.8041 95.6551 92.1681 94.9117 88.956 95.1841M88.956 0.681129V95.1841" stroke="#0D0842"/>
<path d="M143.307 212.736L137.126 141.607C136.789 138.118 136.681 131.283 139.985 130.96L150.823 130.016C154.128 129.692 157.455 136.301 157.792 139.791L163.415 210.865C163.415 210.865 159.432 208.093 153.086 208.538C146.465 209.001 143.307 212.736 143.307 212.736Z" fill="#E7EFF2"/>
<path d="M154.013 88.4647C151.521 85.8656 146.498 84.0907 142.459 84.466C139.154 84.7898 131.681 88.9188 131.032 92.8474C130.794 93.4188 130.662 94.1677 130.609 94.7261C130.436 96.2175 130.447 97.6961 130.373 99.273C130.406 103.709 130.623 108.131 130.932 112.547C131.497 121.938 132.43 131.304 132.995 140.695C133.588 149.159 134.371 157.703 135.24 166.148C136.095 174.409 136.859 182.676 137.622 190.944C138.024 195.354 138.602 199.659 139.279 204.049C139.455 205.239 139.624 206.337 139.892 207.52C139.898 207.612 139.911 207.796 139.918 207.888C140.072 210.096 140.319 212.298 141.111 214.369C141.451 215.269 142.292 215.395 143.166 214.687C143.515 214.385 143.589 212.808 143.563 212.44L137.438 143.435C137.374 142.515 137.303 141.503 137.239 140.582C137.302 137.527 140.235 134.548 145.276 132.623C150.947 130.47 155.525 135.142 156.599 137.285C156.918 139.205 157.244 141.216 157.563 143.135L158.78 156.548C158.792 156.732 158.799 156.824 158.812 157.008C159.057 160.505 159.308 164.093 159.645 167.583C160.226 174.569 160.9 181.548 161.481 188.534C161.85 192.484 162.133 196.532 162.41 200.488C162.7 204.628 162.8 208.69 163.274 212.817C163.481 214.467 165.774 214.214 165.849 212.637C165.873 209.029 165.615 205.349 165.358 201.669C165.107 198.081 164.855 194.492 164.512 190.911C163.924 183.833 163.251 176.853 162.663 169.775C162.081 162.789 161.684 155.79 161.194 148.798C161.098 147.418 160.915 146.136 160.727 144.763C161.09 143.35 160.876 141.609 160.773 140.137C160.558 138.395 160.252 136.66 160.123 134.82C159.728 130.502 159.8 126.244 159.497 121.92C158.892 113.271 157.82 104.563 156.847 95.9402C156.606 93.8305 156.274 91.7273 155.134 89.958C154.826 89.5173 154.518 89.0766 154.216 88.7279C154.118 88.6423 154.111 88.5503 154.013 88.4647Z" fill="#8170F2"/>
<path d="M139.946 139.653C140.275 148.321 141.709 156.912 142.492 165.455C142.925 170.325 143.168 175.116 143.417 179.998C143.66 184.789 143.995 189.573 144.238 194.364C144.533 199.891 144.919 205.411 145.214 210.938C145.265 211.674 146.461 211.59 146.409 210.854C145.825 201.187 145.241 191.52 144.748 181.847C144.19 172.548 143.716 163.15 142.422 153.903C141.719 149.145 140.925 144.392 140.412 139.713C140.386 139.345 139.927 139.377 139.946 139.653Z" fill="#D8E5E5"/>
<path d="M143.223 134.986C143.029 137.496 143.38 139.875 143.646 142.353C143.906 144.738 144.165 147.124 144.339 149.608C144.864 154.472 145.298 159.341 145.639 164.218C146.493 173.773 147.169 183.434 147.931 192.996C148.324 198.608 148.619 204.135 149.195 209.735C149.241 210.379 150.252 210.308 150.207 209.664C149.702 199.806 148.829 189.975 148.047 180.136C147.285 170.574 146.517 160.92 145.571 151.371C145.286 148.617 145.093 145.857 144.808 143.104C144.529 140.442 144.336 137.682 143.597 135.052C143.578 134.776 143.302 134.795 143.223 134.986Z" fill="#D8E5E5"/>
<path d="M146.967 134.354C147.565 144.205 148.714 154.017 149.495 163.855C150.27 173.601 150.854 183.268 151.353 193.034C151.654 198.652 151.863 204.278 152.164 209.896C152.215 210.632 153.411 210.549 153.359 209.813C152.447 190.183 151.535 170.554 149.519 151.002C148.942 145.403 148.273 139.81 147.427 134.322C147.316 134.052 146.948 134.078 146.967 134.354Z" fill="#D8E5E5"/>
<path d="M150.231 134.773C150.313 137.263 150.855 139.722 151.121 142.199C151.387 144.677 151.744 147.148 152.01 149.626C152.529 154.397 153.048 159.169 153.383 163.953C154.145 173.515 154.637 183.188 155.215 192.763C155.503 198.198 155.89 203.718 156.27 209.147C156.328 209.975 157.615 209.885 157.557 209.057C156.106 189.65 155.673 170.265 153.486 150.909C153.201 148.156 152.824 145.408 152.447 142.661C152.076 140.006 151.692 137.167 150.96 134.629C150.744 134.182 150.199 134.313 150.231 134.773Z" fill="#D8E5E5"/>
<path d="M154.505 136.415C154.397 138.826 154.663 141.304 154.837 143.788C155.004 146.18 155.178 148.665 155.437 151.05C155.864 155.828 156.298 160.698 156.633 165.482C157.388 174.952 158.15 184.514 158.814 193.991C159 196.659 159.187 199.327 159.282 202.002C159.379 203.382 159.377 204.676 159.473 206.056C159.57 207.437 159.575 208.823 159.855 210.19C159.973 210.552 160.525 210.513 160.591 210.139C160.89 207.806 160.532 205.335 160.463 203.029C160.295 200.636 160.213 198.146 160.046 195.754C159.711 190.969 159.37 186.093 159.035 181.309C158.266 171.655 157.504 162.093 156.644 152.445C156.457 149.777 156.179 147.115 155.9 144.454C155.621 141.792 155.52 139.025 154.959 136.291C154.939 136.015 154.578 136.133 154.505 136.415Z" fill="#D8E5E5"/>
<path d="M131.056 114.772C131.056 114.772 136.697 108.842 144.679 108.575M158.983 114.772C153.882 109.908 148.946 108.432 144.679 108.575M144.679 108.575V0" stroke="#0D0842"/>
<path d="M213.198 213.825L214.617 150.878C214.697 147.783 212.172 144.409 208.934 143.748C207.071 143.363 202.203 143.26 200.03 143.797C196.716 144.693 196.22 147.661 195.598 150.43L194.179 213.376C194.179 213.376 197.732 210.651 203.741 210.704C209.966 210.702 213.198 213.825 213.198 213.825Z" fill="#E7EFF2"/>
<path d="M194.212 214.444C194.232 213.593 194.234 212.67 194.254 211.819C194.33 210.262 194.316 208.651 194.392 207.094C194.507 204.759 194.549 202.442 194.645 200.034C194.819 195.454 194.903 190.819 195.077 186.239C195.35 178.02 195.279 155.045 195.525 150.448C195.997 142.718 211.707 141.909 214.149 149.918C214.418 150.697 214.152 163.297 214.127 166.302L213.842 179.445C213.646 185.492 213.36 191.484 213.074 197.476C212.922 200.281 212.843 203.069 212.764 205.857C212.667 208.573 212.751 211.397 212.418 214.094C212.308 214.89 213.175 215.599 213.935 215.565C214.749 215.48 215.62 214.917 215.513 214.175C215.229 211.784 215.38 209.286 215.386 206.824C215.392 204.362 215.47 201.881 215.531 199.329C215.67 194.296 215.809 189.263 216.02 184.213C216.274 176.537 216.655 168.753 216.366 161.058L216.666 149.218L217.558 109.933C217.654 107.526 216.356 105.386 214.441 104.168C214.062 103.877 213.7 103.659 213.411 103.423C212.309 102.696 211.08 102.077 209.814 101.621C207.355 100.691 204.624 100.213 201.981 100.405C199.176 100.561 196.585 101.586 195.457 104.172C195.366 104.425 195.202 104.696 195.129 105.022C194.347 106.523 193.981 108.151 193.76 109.744C193.485 111.427 193.282 113.092 193.241 114.793C193.034 118.305 192.971 121.781 192.854 125.347C192.637 132.552 192.493 139.74 192.331 146.854C191.97 161.247 191.7 175.693 191.339 190.086C191.102 198.142 190.793 206.215 190.719 214.308C190.642 216.48 194.207 216.598 194.212 214.444Z" fill="#F6CF3C"/>
<path d="M212.584 138.308C212.368 138.054 212.404 137.891 212.133 137.728C211.844 137.492 211.501 137.346 211.139 137.128C210.525 136.818 209.838 136.527 209.169 136.308C207.74 135.815 206.166 135.666 204.628 135.662C203.162 135.64 201.605 135.871 200.175 136.302C199.45 136.481 198.762 136.805 198.146 137.111C197.602 137.4 196.678 137.705 196.514 138.284C196.441 138.61 196.64 138.791 196.965 138.864C197.526 138.956 198.161 138.415 198.632 138.145C199.248 137.838 199.882 137.605 200.606 137.426C201.892 137.031 203.304 136.835 204.68 136.803C206.055 136.77 207.412 136.973 208.66 137.356C209.311 137.503 209.98 137.722 210.594 138.031C210.938 138.177 211.191 138.268 211.534 138.414C211.878 138.56 212.095 138.506 212.421 138.579C212.584 138.616 212.693 138.435 212.584 138.308Z" fill="#E7EFF2"/>
<path d="M214.03 109.345C213.651 108.746 213.019 108.364 212.459 107.965C211.736 107.528 210.94 107.11 210.163 106.764C208.536 106.089 206.8 105.596 205.045 105.338C202.331 104.932 199 105.756 197.095 107.688C196.423 108.393 197.507 109.355 198.124 108.741C199.829 106.935 202.69 106.382 205.15 106.696C206.742 106.917 208.243 107.392 209.762 107.939C210.449 108.231 211.136 108.522 211.841 108.886C212.456 109.196 213.016 109.595 213.667 109.742C213.92 109.833 214.174 109.617 214.03 109.345Z" fill="#E7EFF2"/>
<path d="M211.013 152.154C210.942 159.016 210.925 165.787 210.854 172.648C210.761 181.284 210.36 189.919 210.031 198.536C209.84 203.043 209.63 207.478 209.51 211.968C209.454 212.674 210.612 212.695 210.668 211.989C210.942 203.77 211.197 195.479 211.38 187.206C211.581 179.005 211.854 170.786 211.892 162.549C211.883 159.091 211.873 155.633 211.556 152.174C211.539 151.794 210.996 151.774 211.013 152.154Z" fill="#D8E5E5"/>
<path d="M207.888 149.774C207.521 151.71 207.733 153.811 207.674 155.748C207.706 157.74 207.719 159.659 207.678 161.668C207.668 165.67 207.677 169.743 207.594 173.762C207.503 181.782 207.266 189.838 206.866 197.857C206.602 202.383 206.428 206.963 206.019 211.524C205.981 212.303 207.302 212.36 207.34 211.582C208.048 195.489 208.685 179.414 208.706 163.337C208.693 161.11 208.662 158.81 208.65 156.584C208.637 154.357 208.824 152.004 208.304 149.902C208.359 149.504 207.961 149.449 207.888 149.774Z" fill="#D8E5E5"/>
<path d="M202.025 149.686C201.839 151.732 201.888 153.796 201.847 155.805C201.806 157.815 201.783 159.897 201.742 161.906C201.587 165.943 201.433 169.98 201.115 173.98C200.625 181.945 199.918 189.964 199.591 197.965C199.417 202.545 199.315 207.107 199.286 211.651C199.248 212.43 200.551 212.415 200.517 211.655C200.211 203.579 200.792 195.361 201.264 187.324C201.808 179.269 202.443 171.268 202.68 163.212C202.721 160.895 202.854 158.632 202.823 156.333C202.81 154.106 202.852 151.789 202.532 149.561C202.605 149.235 202.098 149.361 202.025 149.686Z" fill="#D8E5E5"/>
<path d="M205.5 149.442C205.314 151.487 205.363 153.551 205.322 155.561C205.281 157.57 205.258 159.652 205.217 161.662C205.062 165.699 204.907 169.736 204.59 173.736C204.1 181.701 203.393 189.719 203.066 197.721C202.892 202.301 202.79 206.863 202.761 211.407C202.723 212.185 204.026 212.171 203.992 211.41C203.686 203.335 204.267 195.117 204.739 187.08C205.283 179.024 205.918 171.024 206.155 162.968C206.196 160.651 206.329 158.388 206.298 156.088C206.285 153.862 206.327 151.544 206.007 149.317C206.007 149.009 205.5 149.134 205.5 149.442Z" fill="#D8E5E5"/>
<path d="M198.182 151.867C198.238 158.928 198.42 165.88 198.167 172.94C197.895 180.851 197.314 188.762 196.825 196.726C196.504 201.958 196.184 207.189 195.773 212.366C195.717 213.072 196.966 213.148 197.004 212.369C197.461 203.029 198.081 193.724 198.628 184.438C199.007 177.27 199.387 170.101 199.386 162.95C199.395 159.257 199.386 155.491 198.725 151.886C198.636 151.524 198.183 151.559 198.182 151.867Z" fill="#D8E5E5"/>
<path d="M192.828 125.67C193.148 125.274 197.025 123.505 201.828 122.945M217.153 128.394C213.113 123.124 206.945 122.349 201.828 122.945M201.828 0V122.945" stroke="#0D0842"/>
<path d="M275.027 147.15C274.955 144.02 276.705 141.447 279.046 141.376L284.661 141.191C286.93 141.141 288.858 143.636 288.981 146.673L290.106 189.591L291.276 189.555C291.493 188.702 291.566 187.893 291.595 186.939L288.793 80.0727C288.671 76.2486 286.403 73.1463 283.751 73.2318L276.489 73.438C273.837 73.5235 271.711 76.6814 271.833 80.5056L274.635 187.371C274.678 188.304 274.794 189.215 275.032 190.01L276.203 189.975L275.027 147.15Z" fill="#60C697"/>
<path d="M275.092 147.367C275.02 144.237 276.769 141.664 279.111 141.593L284.725 141.408C286.994 141.358 288.923 143.853 289.045 146.889L290.178 189.569L291.731 189.498L289.911 121.654C289.789 117.83 287.521 114.727 284.869 114.813L277.606 115.019C274.954 115.105 272.829 118.263 272.951 122.087L274.772 189.931L276.325 189.859L275.092 147.367Z" fill="#60C697"/>
<path d="M290.055 188.897L288.336 123.229C288.221 119.954 286.342 117.365 284.001 117.437L278.387 117.622C276.118 117.671 274.318 120.338 274.36 123.634L276.08 189.302C276.08 189.302 278.559 186.275 282.909 186.074C287.549 185.787 290.055 188.897 290.055 188.897Z" fill="#E7EFF2"/>
<path d="M287.057 115.811C286.985 118.197 287.223 120.568 287.294 122.91C287.366 125.252 287.626 127.696 287.936 130.045C288.412 134.788 288.837 139.624 289.074 144.359C289.665 153.952 289.778 163.531 289.675 173.174C289.652 178.617 289.463 184.031 289.274 189.446C289.216 191.354 292.106 191.276 292.164 189.368C292.754 170.045 292.794 150.73 290.826 131.543C290.574 128.861 290.227 126.129 289.664 123.461C289.347 122.138 288.978 120.909 288.661 119.586C288.343 118.263 288.047 117.012 287.585 115.732C287.477 115.371 287.021 115.428 287.057 115.811Z" fill="#60C697"/>
<path d="M272.925 76.7906C273.192 76.6316 273.387 76.4944 273.676 76.4078L273.654 76.3355C273.387 76.4944 273.12 76.6533 272.925 76.7906C272.874 76.8845 272.852 76.8122 272.925 76.7906Z" fill="#F3B953"/>
<path d="M273.835 75.0993C272.549 75.7999 271.768 77.1369 271.58 78.6115C271.312 80.3463 271.189 82.0378 271.066 83.7293C270.761 87.4448 270.551 91.211 270.413 94.9555C270.202 102.661 270.373 110.331 270.617 117.98C270.811 125.722 271.221 133.399 271.32 141.091C271.441 148.855 271.707 156.575 272.161 164.397C272.413 168.655 272.614 173.007 273.032 177.294C273.205 179.448 273.472 181.653 273.645 183.807C273.839 186.034 273.983 188.354 274.539 190.473C274.944 192.085 277.155 191.58 277.228 189.982C277.358 188.052 277.106 186.158 276.947 184.315C276.767 182.399 276.681 180.534 276.573 178.597C276.306 174.816 276.04 171.035 275.845 167.232C275.384 159.649 275.068 152.023 274.918 144.425C274.79 136.9 274.517 129.418 274.316 121.914C274.022 114.359 273.749 106.877 273.765 99.3088C273.773 95.1305 273.947 90.9812 274.194 86.8103C274.303 84.8079 274.556 82.7623 274.716 80.666C274.759 80.0227 274.781 79.307 274.846 78.7359C274.962 78.0709 274.839 77.3986 275.309 76.8639C276.104 75.8378 274.926 74.536 273.835 75.0993Z" fill="#60C697"/>
<path d="M286.885 76.0742C286.575 75.3006 285.997 74.6858 285.368 74.165C284.74 73.6443 284.09 73.0512 283.36 72.7183C281.64 71.9729 279.682 72.0081 277.818 72.094C276.119 72.2088 274.595 72.9021 273.525 74.3257C272.629 75.5397 271.537 77.6789 272.664 79.0746C272.917 79.3928 273.466 79.3858 273.733 79.2269C274.781 78.519 274.688 76.8924 275.483 75.8663C276.307 74.674 277.528 74.5444 278.843 74.4655C280.231 74.365 281.712 74.3151 283.099 75.0025C284.226 75.6103 285.238 76.883 286.654 76.6162C286.799 76.5729 286.929 76.2188 286.885 76.0742Z" fill="#60C697"/>
<path d="M281.083 74.5823C282.435 74.0986 284.053 75.0319 284.906 76.0371C286.011 77.3606 286.285 79.3269 286.422 81.0981C286.811 85.5513 286.984 90.0694 287.228 94.5659C287.689 103.725 287.911 112.877 287.988 122.072C288.031 124.581 288.001 127.111 288.044 129.619C288.03 130.884 288.087 132.128 288.072 133.393C288.101 134.014 288.152 134.708 288.253 135.308C288.375 135.981 288.715 136.588 288.859 137.333C288.982 138.005 290.059 137.919 290.196 137.326C290.333 136.733 290.565 136.191 290.702 135.599C290.84 135.006 290.861 134.29 290.833 133.669C290.847 132.404 290.79 131.16 290.805 129.895C290.783 127.459 290.69 125.045 290.691 122.681C290.576 117.83 290.483 113.052 290.296 108.223C290.16 103.3 289.952 98.3985 289.722 93.4249C289.628 91.0104 289.462 88.6176 289.297 86.2247C289.174 83.9765 289.052 81.7283 288.713 79.545C288.374 77.3617 287.63 75.1421 285.932 73.681C284.278 72.3646 282.211 72.0383 280.477 73.3459C279.87 73.6853 280.288 74.8205 281.083 74.5823Z" fill="#60C697"/>
<path d="M289.634 125.991C289.981 124.784 289.736 123.439 289.534 122.239C289.259 121.061 288.797 119.781 288.111 118.805C286.421 116.317 283.819 115.521 281.059 115.245C279.679 115.107 278.299 114.969 276.976 115.286C275.509 115.647 274.425 116.76 273.623 118.024C272.199 120.105 270.088 124.362 272.508 126.395C272.927 126.742 273.643 126.764 273.946 126.2C274.228 125.564 274.358 125.21 274.474 124.545C274.561 124.046 274.698 123.454 274.857 122.933C275.154 121.82 275.66 120.881 276.238 119.919C276.715 119.146 277.257 118.59 278.146 118.402C279.201 118.244 280.343 118.374 281.391 118.454C283.342 118.658 284.924 119.208 286.066 120.915C287.113 122.57 287.286 124.725 288.434 126.193C288.731 126.656 289.424 126.605 289.634 125.991Z" fill="#60C697"/>
<path d="M286.719 111.264C286.813 110.527 286.893 109.479 286.46 108.821C286.633 108.611 286.734 108.423 286.648 108.134C286.164 106.782 284.791 106.406 283.584 106.058C282.305 105.732 281.019 105.645 279.704 105.724C278.461 105.781 276.929 105.925 275.859 106.56C274.378 107.398 275.064 109.162 275.382 110.485C275.555 111.064 276.183 111.585 276.805 111.556C278.192 111.455 279.695 111.478 281.054 111.543C282.412 111.609 283.937 111.704 285.259 112.174C285.801 112.406 286.603 111.929 286.719 111.264Z" fill="#E7EFF2"/>
<path d="M276.798 76.5755C276.371 77.2548 276.436 78.2596 276.364 79.0692C276.335 80.0234 276.284 80.9053 276.327 81.8379C276.319 83.6523 276.355 85.6114 276.658 87.4115C276.903 88.7562 278.826 88.3378 278.84 87.0728C278.848 85.2583 278.545 83.4582 278.408 81.6871C278.314 80.8485 278.271 79.9159 278.177 79.0773C278.105 78.311 278.062 77.3785 277.679 76.6265C277.477 76.2144 277 76.1996 276.798 76.5755Z" fill="#E7EFF2"/>
<path d="M280.209 76.6566C279.348 79.0417 279.543 82.0562 279.968 84.5287C280.091 85.201 280.481 85.7145 281.175 85.6642C281.724 85.6572 282.338 85.0792 282.31 84.4575C282.158 83.1635 281.985 81.7971 281.906 80.4814C281.827 79.1657 281.748 77.85 281.452 76.5993C281.257 75.9486 280.44 76.1145 280.209 76.6566Z" fill="#E7EFF2"/>
<path d="M283.432 76.6364C283.027 78.176 283.257 79.9978 283.257 81.5737C283.257 82.3616 283.351 83.2002 283.372 84.0604C283.394 84.9207 283.393 85.7087 283.798 86.5329C284.116 87.068 284.997 87.1191 285.279 86.483C285.59 85.6808 285.54 84.9868 285.54 84.1988C285.518 83.3386 285.497 82.4783 285.382 81.5675C285.216 79.9626 285.296 78.1265 284.696 76.6515C284.407 75.9502 283.62 75.9498 283.432 76.6364Z" fill="#E7EFF2"/>
<path d="M284.273 122.555C284.208 124.702 284.424 127.001 284.525 129.177C284.604 131.28 284.755 133.362 284.834 135.466C285.014 139.745 285.287 144.076 285.467 148.355C285.877 156.82 285.904 165.322 286.148 173.758C286.262 178.608 286.355 183.387 286.376 188.187C286.39 189.286 288.038 189.265 288.024 188.166C287.903 179.614 287.688 171.012 287.307 162.38C287.127 158.101 286.853 153.77 286.674 149.491C286.494 145.211 286.314 140.932 286.041 136.601C285.875 134.208 285.709 131.816 285.544 129.423C285.4 127.102 285.306 124.688 284.945 122.432C284.888 121.977 284.237 122.172 284.273 122.555Z" fill="#D8E5E5"/>
<path d="M281.5 119.604C282.11 137.149 282.72 154.694 283.164 172.209C283.301 177.132 283.437 182.055 283.573 186.978C283.587 188.077 285.213 187.984 285.221 186.957C284.683 169.391 283.928 151.889 283.079 134.337C282.849 129.364 282.568 124.484 282.266 119.532C282.136 119.098 281.442 119.149 281.5 119.604Z" fill="#D8E5E5"/>
<path d="M278.617 121.019C278.125 123.058 278.413 125.335 278.471 127.366C278.55 129.47 278.629 131.574 278.708 133.677C278.837 138.051 279.038 142.403 279.167 146.776C279.455 155.357 279.691 164.032 279.978 172.613C280.114 177.535 280.229 182.386 280.365 187.309C280.401 188.48 282.121 188.438 282.085 187.266C281.634 169.989 280.944 152.705 280.088 135.391C279.994 132.977 279.829 130.584 279.735 128.169C279.678 126.926 279.642 125.755 279.512 124.533C279.382 123.311 279.346 122.14 279 120.983C278.956 120.839 278.718 120.832 278.617 121.019Z" fill="#D8E5E5"/>
<path d="M276.527 124.561C276.447 125.609 276.324 126.512 276.317 127.539C276.309 128.565 276.23 129.613 276.244 130.712C276.229 132.765 276.214 134.818 276.199 136.871C276.22 140.883 276.219 144.823 276.384 148.792C276.592 156.845 276.966 164.927 277.412 172.987C277.606 177.578 277.894 182.219 278.233 186.766C278.255 187.626 279.591 187.62 279.476 186.709C278.345 170.581 277.929 154.474 277.42 138.318C277.348 135.975 277.298 133.706 277.154 131.385C277.118 130.214 277.082 129.043 277.068 127.944C277.032 126.773 276.924 125.623 276.816 124.474C276.794 124.402 276.556 124.394 276.527 124.561Z" fill="#D8E5E5"/>
<path d="M270.338 98.765C270.338 98.765 274.444 95.6278 279.675 95.1841M289.892 98.765C286.523 95.6551 282.887 94.9117 279.675 95.1841M279.675 0.681129V95.1841" stroke="#0D0842"/>
<path d="M334.026 212.736L327.845 141.607C327.508 138.118 327.399 131.283 330.703 130.96L341.542 130.016C344.846 129.692 348.174 136.301 348.51 139.791L354.133 210.865C354.133 210.865 350.15 208.093 343.805 208.538C337.184 209.001 334.026 212.736 334.026 212.736Z" fill="#E7EFF2"/>
<path d="M344.731 88.4647C342.239 85.8656 337.217 84.0907 333.177 84.466C329.873 84.7898 322.399 88.9188 321.75 92.8474C321.513 93.4188 321.381 94.1677 321.327 94.7261C321.154 96.2175 321.166 97.6961 321.091 99.273C321.124 103.709 321.342 108.131 321.651 112.547C322.216 121.938 323.149 131.304 323.714 140.695C324.307 149.159 325.09 157.703 325.958 166.148C326.814 174.409 327.577 182.676 328.341 190.944C328.742 195.354 329.321 199.659 329.998 204.049C330.174 205.239 330.343 206.337 330.61 207.52C330.617 207.612 330.63 207.796 330.636 207.888C330.791 210.096 331.037 212.298 331.829 214.369C332.17 215.269 333.01 215.395 333.885 214.687C334.233 214.385 334.308 212.808 334.282 212.44L328.157 143.435C328.092 142.515 328.022 141.503 327.957 140.582C328.02 137.527 330.954 134.548 335.994 132.623C341.665 130.47 346.244 135.142 347.318 137.285C347.637 139.205 347.963 141.216 348.282 143.135L349.498 156.548C349.511 156.732 349.517 156.824 349.53 157.008C349.775 160.505 350.026 164.093 350.363 167.583C350.945 174.569 351.618 181.548 352.2 188.534C352.569 192.484 352.852 196.532 353.129 200.488C353.419 204.628 353.518 208.69 353.992 212.817C354.2 214.467 356.493 214.214 356.567 212.637C356.592 209.029 356.334 205.349 356.076 201.669C355.825 198.081 355.574 194.492 355.231 190.911C354.643 183.833 353.969 176.853 353.381 169.775C352.8 162.789 352.402 155.79 351.913 148.798C351.816 147.418 351.634 146.136 351.445 144.763C351.809 143.35 351.594 141.609 351.491 140.137C351.277 138.395 350.97 136.66 350.842 134.82C350.447 130.502 350.518 126.244 350.216 121.92C349.61 113.271 348.538 104.563 347.565 95.9402C347.325 93.8305 346.993 91.7273 345.852 89.958C345.544 89.5173 345.236 89.0766 344.935 88.7279C344.836 88.6423 344.83 88.5503 344.731 88.4647Z" fill="#F46041"/>
<path d="M330.664 139.653C330.994 148.321 332.427 156.912 333.21 165.455C333.644 170.325 333.887 175.116 334.136 179.998C334.379 184.789 334.714 189.573 334.957 194.364C335.251 199.891 335.638 205.411 335.932 210.938C335.984 211.674 337.18 211.59 337.128 210.854C336.544 201.187 335.959 191.52 335.467 181.847C334.908 172.548 334.435 163.15 333.141 153.903C332.438 149.145 331.643 144.392 331.131 139.713C331.105 139.345 330.645 139.377 330.664 139.653Z" fill="#D8E5E5"/>
<path d="M333.941 134.986C333.747 137.496 334.099 139.875 334.365 142.353C334.624 144.738 334.884 147.124 335.057 149.608C335.583 154.472 336.016 159.341 336.358 164.218C337.211 173.773 337.888 183.434 338.65 192.996C339.043 198.608 339.337 204.135 339.914 209.735C339.959 210.379 340.971 210.308 340.926 209.664C340.42 199.806 339.547 189.975 338.766 180.136C338.004 170.574 337.236 160.92 336.29 151.371C336.005 148.617 335.811 145.857 335.526 143.104C335.247 140.442 335.054 137.682 334.316 135.052C334.296 134.776 334.02 134.795 333.941 134.986Z" fill="#D8E5E5"/>
<path d="M337.686 134.354C338.283 144.205 339.432 154.017 340.213 163.855C340.988 173.601 341.573 183.268 342.072 193.034C342.372 198.652 342.581 204.278 342.882 209.896C342.934 210.632 344.129 210.549 344.078 209.813C343.166 190.183 342.253 170.554 340.238 151.002C339.661 145.403 338.992 139.81 338.146 134.322C338.034 134.052 337.667 134.078 337.686 134.354Z" fill="#D8E5E5"/>
<path d="M340.951 134.773C341.033 137.263 341.574 139.722 341.84 142.199C342.106 144.677 342.464 147.148 342.73 149.626C343.249 154.397 343.768 159.169 344.103 163.953C344.864 173.515 345.357 183.188 345.935 192.763C346.223 198.198 346.609 203.718 346.989 209.147C347.047 209.975 348.335 209.885 348.277 209.057C346.826 189.65 346.393 170.264 344.206 150.909C343.921 148.156 343.544 145.408 343.166 142.661C342.796 140.006 342.412 137.167 341.68 134.629C341.464 134.182 340.918 134.313 340.951 134.773Z" fill="#D8E5E5"/>
<path d="M345.224 136.415C345.115 138.826 345.381 141.304 345.555 143.788C345.723 146.18 345.897 148.665 346.156 151.05C346.583 155.828 347.016 160.698 347.351 165.482C348.107 174.952 348.869 184.514 349.532 193.991C349.719 196.659 349.906 199.327 350.001 202.002C350.097 203.382 350.095 204.676 350.192 206.056C350.289 207.437 350.293 208.823 350.574 210.19C350.692 210.552 351.243 210.513 351.31 210.139C351.608 207.806 351.251 205.335 351.181 203.029C351.014 200.636 350.932 198.146 350.765 195.754C350.43 190.969 350.088 186.093 349.753 181.309C348.985 171.655 348.223 162.093 347.363 152.445C347.176 149.777 346.897 147.115 346.618 144.454C346.34 141.792 346.238 139.025 345.677 136.291C345.658 136.015 345.296 136.133 345.224 136.415Z" fill="#D8E5E5"/>
<path d="M321.775 114.772C321.775 114.772 327.415 108.842 335.398 108.575M349.701 114.772C344.6 109.908 339.664 108.432 335.398 108.575M335.398 108.575V0" stroke="#0D0842"/>
<path d="M404.597 213.825L406.017 150.878C406.097 147.783 403.572 144.409 400.334 143.748C398.471 143.363 393.603 143.26 391.43 143.797C388.116 144.693 387.62 147.661 386.998 150.43L385.578 213.376C385.578 213.376 389.132 210.651 395.14 210.704C401.366 210.702 404.597 213.825 404.597 213.825Z" fill="#E7EFF2"/>
<path d="M385.611 214.444C385.632 213.593 385.634 212.67 385.654 211.819C385.73 210.262 385.716 208.651 385.792 207.094C385.906 204.759 385.948 202.442 386.045 200.034C386.219 195.454 386.302 190.819 386.476 186.239C386.75 178.02 386.679 155.045 386.925 150.448C387.396 142.718 403.107 141.909 405.548 149.918C405.818 150.697 405.552 163.297 405.527 166.302L405.241 179.445C405.046 185.492 404.76 191.484 404.474 197.476C404.322 200.281 404.243 203.069 404.164 205.857C404.067 208.573 404.15 211.397 403.818 214.094C403.707 214.89 404.574 215.599 405.335 215.565C406.149 215.48 407.019 214.917 406.912 214.175C406.629 211.784 406.78 209.286 406.786 206.824C406.791 204.362 406.87 201.881 406.93 199.329C407.069 194.296 407.208 189.263 407.42 184.213C407.673 176.537 408.054 168.753 407.765 161.058L408.066 149.218L408.957 109.933C409.054 107.526 407.756 105.386 405.841 104.168C405.461 103.877 405.1 103.659 404.811 103.423C403.709 102.696 402.48 102.077 401.214 101.621C398.755 100.691 396.023 100.213 393.381 100.405C390.575 100.561 387.985 101.586 386.857 104.172C386.765 104.425 386.602 104.696 386.529 105.022C385.747 106.523 385.381 108.151 385.16 109.744C384.884 111.427 384.681 113.092 384.641 114.793C384.433 118.305 384.371 121.781 384.253 125.347C384.037 132.552 383.893 139.74 383.731 146.854C383.37 161.247 383.1 175.693 382.739 190.086C382.502 198.142 382.193 206.215 382.119 214.308C382.041 216.48 385.606 216.598 385.611 214.444Z" fill="#F6CF3C"/>
<path d="M403.985 138.308C403.768 138.054 403.805 137.891 403.534 137.728C403.245 137.492 402.901 137.346 402.54 137.128C401.926 136.818 401.239 136.527 400.569 136.308C399.141 135.815 397.567 135.666 396.029 135.662C394.563 135.64 393.006 135.871 391.575 136.302C390.851 136.481 390.162 136.805 389.546 137.111C389.003 137.4 388.079 137.705 387.915 138.284C387.842 138.61 388.04 138.791 388.366 138.864C388.927 138.956 389.561 138.415 390.032 138.145C390.649 137.838 391.282 137.605 392.007 137.426C393.293 137.031 394.705 136.835 396.08 136.803C397.456 136.77 398.812 136.973 400.06 137.356C400.711 137.503 401.38 137.722 401.995 138.031C402.338 138.177 402.592 138.268 402.935 138.414C403.279 138.56 403.496 138.506 403.821 138.579C403.984 138.616 404.093 138.435 403.985 138.308Z" fill="#E7EFF2"/>
<path d="M405.429 109.345C405.051 108.746 404.418 108.364 403.858 107.965C403.135 107.528 402.34 107.11 401.563 106.764C399.936 106.089 398.199 105.596 396.445 105.338C393.731 104.932 390.399 105.756 388.494 107.688C387.823 108.393 388.907 109.355 389.523 108.741C391.229 106.935 394.09 106.382 396.55 106.696C398.142 106.917 399.643 107.392 401.162 107.939C401.849 108.231 402.536 108.522 403.241 108.886C403.855 109.196 404.415 109.595 405.066 109.742C405.319 109.833 405.573 109.617 405.429 109.345Z" fill="#E7EFF2"/>
<path d="M402.412 152.154C402.341 159.016 402.325 165.787 402.254 172.648C402.161 181.284 401.76 189.919 401.431 198.536C401.239 203.043 401.029 207.478 400.91 211.968C400.854 212.674 402.012 212.695 402.068 211.989C402.341 203.77 402.597 195.479 402.78 187.206C402.981 179.005 403.254 170.786 403.292 162.549C403.282 159.091 403.273 155.633 402.955 152.174C402.938 151.794 402.395 151.774 402.412 152.154Z" fill="#D8E5E5"/>
<path d="M399.287 149.774C398.92 151.71 399.132 153.811 399.073 155.748C399.104 157.74 399.118 159.659 399.077 161.668C399.067 165.67 399.075 169.743 398.993 173.762C398.901 181.782 398.664 189.838 398.265 197.857C398.001 202.383 397.827 206.963 397.417 211.524C397.379 212.303 398.7 212.36 398.738 211.582C399.447 195.489 400.083 179.414 400.104 163.337C400.092 161.11 400.061 158.81 400.048 156.584C400.036 154.357 400.222 152.004 399.703 149.902C399.758 149.504 399.36 149.449 399.287 149.774Z" fill="#D8E5E5"/>
<path d="M393.424 149.686C393.239 151.732 393.288 153.796 393.247 155.805C393.206 157.815 393.182 159.897 393.141 161.906C392.987 165.943 392.832 169.98 392.515 173.98C392.025 181.945 391.318 189.964 390.991 197.965C390.817 202.545 390.715 207.107 390.686 211.651C390.648 212.43 391.951 212.415 391.917 211.655C391.61 203.579 392.191 195.361 392.663 187.324C393.208 179.269 393.843 171.268 394.079 163.212C394.121 160.895 394.253 158.632 394.223 156.333C394.21 154.106 394.252 151.789 393.932 149.561C394.005 149.235 393.498 149.361 393.424 149.686Z" fill="#D8E5E5"/>
<path d="M396.899 149.442C396.713 151.487 396.763 153.551 396.722 155.561C396.68 157.57 396.657 159.652 396.616 161.662C396.462 165.699 396.307 169.736 395.99 173.736C395.5 181.701 394.793 189.719 394.466 197.721C394.292 202.301 394.19 206.863 394.161 211.407C394.123 212.185 395.426 212.171 395.391 211.41C395.085 203.335 395.666 195.117 396.138 187.08C396.683 179.024 397.317 171.024 397.554 162.968C397.596 160.651 397.728 158.388 397.698 156.088C397.685 153.862 397.727 151.544 397.406 149.317C397.407 149.009 396.9 149.134 396.899 149.442Z" fill="#D8E5E5"/>
<path d="M389.582 151.867C389.637 158.928 389.819 165.88 389.567 172.94C389.294 180.851 388.714 188.762 388.224 196.726C387.904 201.958 387.583 207.189 387.173 212.366C387.117 213.072 388.365 213.148 388.403 212.369C388.86 203.029 389.48 193.724 390.028 184.438C390.407 177.27 390.786 170.101 390.786 162.95C390.795 159.257 390.786 155.491 390.125 151.886C390.035 151.524 389.583 151.559 389.582 151.867Z" fill="#D8E5E5"/>
<path d="M384.228 125.67C384.548 125.274 388.424 123.505 393.227 122.945M408.553 128.394C404.513 123.124 398.344 122.349 393.227 122.945M393.227 0V122.945" stroke="#0D0842"/>
<path d="M466.425 147.15C466.353 144.02 468.102 141.447 470.444 141.376L476.058 141.191C478.327 141.141 480.256 143.636 480.378 146.672L481.503 189.591L482.674 189.555C482.891 188.702 482.963 187.893 482.992 186.939L480.191 80.0727C480.069 76.2485 477.8 73.1463 475.148 73.2318L467.886 73.4379C465.234 73.5234 463.109 76.6814 463.231 80.5055L466.033 187.371C466.076 188.304 466.191 189.215 466.43 190.01L467.6 189.975L466.425 147.15Z" fill="#60C697"/>
<path d="M466.489 147.367C466.418 144.237 468.167 141.664 470.508 141.593L476.123 141.408C478.392 141.358 480.321 143.853 480.443 146.889L481.575 189.569L483.129 189.498L481.309 121.654C481.187 117.83 478.918 114.727 476.266 114.813L469.004 115.019C466.352 115.104 464.227 118.262 464.349 122.087L466.169 189.931L467.723 189.859L466.489 147.367Z" fill="#60C697"/>
<path d="M481.453 188.897L479.733 123.229C479.618 119.954 477.74 117.365 475.399 117.437L469.784 117.622C467.515 117.671 465.715 120.338 465.758 123.634L467.478 189.302C467.478 189.302 469.957 186.275 474.307 186.074C478.946 185.787 481.453 188.897 481.453 188.897Z" fill="#E7EFF2"/>
<path d="M478.455 115.811C478.382 118.197 478.62 120.568 478.692 122.91C478.764 125.252 479.023 127.696 479.334 130.045C479.809 134.788 480.235 139.624 480.472 144.359C481.063 153.952 481.176 163.531 481.073 173.174C481.05 178.617 480.861 184.031 480.672 189.446C480.613 191.354 483.504 191.276 483.562 189.368C484.152 170.045 484.192 150.73 482.224 131.543C481.971 128.861 481.625 126.129 481.062 123.461C480.744 122.138 480.376 120.909 480.058 119.586C479.741 118.263 479.445 117.012 478.983 115.732C478.874 115.371 478.419 115.428 478.455 115.811Z" fill="#60C697"/>
<path d="M464.322 76.7905C464.59 76.6316 464.785 76.4943 465.074 76.4077L465.052 76.3354C464.785 76.4943 464.517 76.6533 464.322 76.7905C464.272 76.8845 464.25 76.8122 464.322 76.7905Z" fill="#F3B953"/>
<path d="M465.234 75.0993C463.947 75.7999 463.167 77.1369 462.978 78.6115C462.711 80.3463 462.588 82.0378 462.464 83.7293C462.16 87.4448 461.95 91.2109 461.811 94.9554C461.6 102.661 461.772 110.331 462.016 117.98C462.209 125.722 462.62 133.399 462.719 141.091C462.84 148.854 463.106 156.575 463.559 164.397C463.811 168.655 464.013 173.007 464.431 177.294C464.604 179.448 464.871 181.653 465.044 183.807C465.238 186.034 465.382 188.354 465.938 190.473C466.342 192.085 468.554 191.58 468.626 189.982C468.757 188.052 468.504 186.158 468.346 184.315C468.165 182.399 468.079 180.534 467.971 178.597C467.705 174.816 467.438 171.035 467.244 167.232C466.783 159.649 466.467 152.022 466.317 144.425C466.188 136.9 465.915 129.417 465.715 121.914C465.42 114.359 465.147 106.877 465.163 99.3088C465.172 95.1305 465.346 90.9812 465.593 86.8103C465.701 84.8079 465.955 82.7623 466.114 80.666C466.158 80.0226 466.179 79.307 466.245 78.7359C466.36 78.0709 466.238 77.3986 466.708 76.8639C467.503 75.8377 466.325 74.536 465.234 75.0993Z" fill="#60C697"/>
<path d="M478.284 76.0742C477.973 75.3006 477.396 74.6858 476.767 74.165C476.138 73.6443 475.488 73.0512 474.758 72.7183C473.039 71.9729 471.081 72.0081 469.216 72.094C467.518 72.2088 465.993 72.9021 464.923 74.3257C464.027 75.5397 462.936 77.6789 464.062 79.0746C464.315 79.3928 464.865 79.3858 465.132 79.2269C466.18 78.519 466.086 76.8924 466.881 75.8663C467.705 74.674 468.927 74.5444 470.242 74.4655C471.629 74.365 473.111 74.3151 474.498 75.0025C475.625 75.6103 476.636 76.883 478.053 76.6162C478.197 76.5729 478.327 76.2188 478.284 76.0742Z" fill="#60C697"/>
<path d="M472.482 74.5822C473.833 74.0985 475.452 75.0319 476.304 76.0371C477.41 77.3605 477.684 79.3269 477.821 81.098C478.21 85.5512 478.382 90.0693 478.627 94.5658C479.087 103.725 479.309 112.877 479.387 122.072C479.43 124.581 479.4 127.111 479.443 129.619C479.428 130.884 479.486 132.128 479.471 133.393C479.5 134.014 479.55 134.708 479.651 135.308C479.774 135.981 480.113 136.588 480.258 137.333C480.38 138.005 481.457 137.919 481.595 137.326C481.732 136.733 481.963 136.191 482.101 135.599C482.238 135.006 482.26 134.29 482.231 133.669C482.246 132.404 482.189 131.16 482.203 129.895C482.182 127.459 482.089 125.044 482.089 122.681C481.975 117.83 481.882 113.052 481.695 108.223C481.559 103.3 481.35 98.3984 481.12 93.4248C481.027 91.0104 480.861 88.6175 480.695 86.2247C480.573 83.9764 480.451 81.7282 480.112 79.5449C479.772 77.3616 479.029 75.142 477.331 73.681C475.676 72.3645 473.61 72.0382 471.875 73.3458C471.268 73.6853 471.687 74.8204 472.482 74.5822Z" fill="#60C697"/>
<path d="M481.652 124.102C481.765 122.851 481.271 121.577 480.846 120.436C480.354 119.331 479.659 118.161 478.8 117.332C476.671 115.208 473.966 114.917 471.204 115.166C469.822 115.291 468.441 115.416 467.202 115.977C465.829 116.608 464.975 117.906 464.425 119.299C463.42 121.611 462.15 126.19 464.91 127.729C465.387 127.991 466.094 127.878 466.286 127.267C466.442 126.589 466.503 126.217 466.492 125.542C466.483 125.036 466.506 124.428 466.564 123.887C466.645 122.738 466.965 121.72 467.351 120.667C467.674 119.817 468.101 119.169 468.939 118.817C469.945 118.462 471.091 118.375 472.135 118.256C474.089 118.087 475.747 118.329 477.19 119.79C478.531 121.218 479.107 123.301 480.512 124.526C480.89 124.925 481.562 124.744 481.652 124.102Z" fill="#60C697"/>
<path d="M478.118 111.264C478.212 110.527 478.292 109.479 477.858 108.821C478.032 108.611 478.133 108.423 478.046 108.134C477.562 106.782 476.189 106.405 474.983 106.058C473.704 105.732 472.418 105.645 471.102 105.724C469.86 105.781 468.328 105.925 467.258 106.56C465.777 107.398 466.463 109.162 466.78 110.485C466.954 111.064 467.582 111.584 468.204 111.556C469.591 111.455 471.094 111.478 472.452 111.543C473.811 111.609 475.336 111.704 476.658 112.174C477.2 112.406 478.002 111.929 478.118 111.264Z" fill="#E7EFF2"/>
<path d="M468.196 76.5754C467.77 77.2547 467.835 78.2596 467.762 79.0692C467.733 80.0234 467.682 80.9053 467.726 81.8378C467.718 83.6523 467.754 85.6113 468.057 87.4115C468.302 88.7562 470.224 88.3378 470.239 87.0728C470.247 85.2583 469.944 83.4582 469.807 81.687C469.713 80.8484 469.67 79.9159 469.576 79.0773C469.504 78.311 469.461 77.3785 469.078 76.6265C468.876 76.2143 468.399 76.1996 468.196 76.5754Z" fill="#E7EFF2"/>
<path d="M471.607 76.6565C470.747 79.0416 470.941 82.0562 471.367 84.5286C471.49 85.201 471.88 85.7144 472.574 85.6642C473.123 85.6572 473.737 85.0792 473.708 84.4575C473.557 83.1634 473.384 81.7971 473.305 80.4814C473.225 79.1657 473.146 77.85 472.85 76.5993C472.655 75.9486 471.839 76.1145 471.607 76.6565Z" fill="#E7EFF2"/>
<path d="M474.829 76.6364C474.424 78.176 474.655 79.9978 474.655 81.5736C474.655 82.3616 474.748 83.2002 474.77 84.0604C474.791 84.9207 474.791 85.7086 475.196 86.5329C475.513 87.068 476.395 87.119 476.677 86.483C476.988 85.6808 476.937 84.9868 476.938 84.1988C476.916 83.3386 476.895 82.4783 476.779 81.5674C476.613 79.9625 476.693 78.1264 476.094 76.6515C475.805 75.9501 475.017 75.9497 474.829 76.6364Z" fill="#E7EFF2"/>
<path d="M475.672 122.555C475.606 124.702 475.823 127.001 475.923 129.176C476.002 131.28 476.154 133.362 476.233 135.466C476.412 139.745 476.686 144.076 476.866 148.355C477.276 156.82 477.303 165.322 477.547 173.758C477.661 178.608 477.754 183.387 477.775 188.187C477.789 189.286 479.436 189.265 479.422 188.166C479.301 179.614 479.086 171.012 478.705 162.38C478.526 158.101 478.252 153.77 478.072 149.491C477.893 145.211 477.713 140.932 477.439 136.601C477.274 134.208 477.108 131.816 476.942 129.423C476.798 127.102 476.705 124.688 476.344 122.432C476.286 121.977 475.636 122.172 475.672 122.555Z" fill="#D8E5E5"/>
<path d="M472.898 119.604C473.509 137.149 474.119 154.694 474.563 172.209C474.699 177.132 474.836 182.055 474.972 186.978C474.986 188.077 476.612 187.984 476.619 186.957C476.081 169.391 475.326 151.889 474.478 134.337C474.247 129.364 473.967 124.484 473.664 119.532C473.534 119.098 472.841 119.149 472.898 119.604Z" fill="#D8E5E5"/>
<path d="M470.013 121.019C469.522 123.058 469.81 125.335 469.868 127.366C469.947 129.47 470.026 131.574 470.105 133.677C470.234 138.051 470.435 142.403 470.564 146.776C470.851 155.357 471.088 164.032 471.375 172.613C471.511 177.535 471.626 182.386 471.762 187.309C471.798 188.48 473.518 188.438 473.482 187.266C473.03 169.989 472.34 152.705 471.484 135.391C471.391 132.977 471.225 130.584 471.132 128.169C471.074 126.926 471.039 125.755 470.909 124.533C470.779 123.311 470.743 122.14 470.396 120.983C470.353 120.839 470.115 120.832 470.013 121.019Z" fill="#D8E5E5"/>
<path d="M467.926 124.561C467.846 125.609 467.723 126.512 467.715 127.539C467.708 128.565 467.628 129.613 467.642 130.712C467.628 132.765 467.613 134.818 467.598 136.871C467.619 140.883 467.618 144.823 467.783 148.792C467.991 156.845 468.365 164.927 468.811 172.987C469.005 177.578 469.293 182.219 469.632 186.766C469.653 187.626 470.99 187.62 470.875 186.709C469.744 170.581 469.328 154.474 468.819 138.318C468.747 135.975 468.697 133.706 468.553 131.385C468.517 130.214 468.481 129.043 468.467 127.944C468.431 126.773 468.323 125.623 468.215 124.474C468.193 124.402 467.955 124.394 467.926 124.561Z" fill="#D8E5E5"/>
<path d="M461.737 98.765C461.737 98.765 465.843 95.6278 471.073 95.1841M481.29 98.765C477.921 95.6551 474.285 94.9117 471.073 95.1841M471.073 0.681129V95.1841" stroke="#0D0842"/>
<path d="M525.427 212.736L519.245 141.607C518.909 138.118 518.8 131.283 522.104 130.96L532.943 130.016C536.247 129.692 539.574 136.301 539.911 139.791L545.534 210.865C545.534 210.865 541.551 208.093 535.206 208.538C528.584 209.001 525.427 212.736 525.427 212.736Z" fill="#E7EFF2"/>
<path d="M536.132 88.4647C533.64 85.8656 528.618 84.0907 524.578 84.466C521.274 84.7898 513.8 88.9188 513.151 92.8474C512.914 93.4188 512.781 94.1677 512.728 94.7261C512.555 96.2175 512.566 97.6961 512.492 99.273C512.525 103.709 512.742 108.131 513.051 112.547C513.617 121.938 514.549 131.304 515.115 140.695C515.707 149.159 516.49 157.703 517.359 166.148C518.214 174.409 518.978 182.676 519.742 190.944C520.143 195.354 520.721 199.659 521.398 204.049C521.574 205.239 521.743 206.337 522.011 207.52C522.018 207.612 522.03 207.796 522.037 207.888C522.191 210.096 522.438 212.298 523.23 214.369C523.57 215.269 524.411 215.395 525.285 214.687C525.634 214.385 525.708 212.808 525.682 212.44L519.557 143.435C519.493 142.515 519.422 141.503 519.358 140.582C519.421 137.527 522.354 134.548 527.395 132.623C533.066 130.47 537.644 135.142 538.718 137.285C539.038 139.205 539.363 141.216 539.682 143.135L540.899 156.548C540.912 156.732 540.918 156.824 540.931 157.008C541.176 160.505 541.427 164.093 541.764 167.583C542.345 174.569 543.019 181.548 543.6 188.534C543.969 192.484 544.253 196.532 544.53 200.488C544.819 204.628 544.919 208.69 545.393 212.817C545.601 214.467 547.893 214.214 547.968 212.637C547.992 209.029 547.735 205.349 547.477 201.669C547.226 198.081 546.975 194.492 546.631 190.911C546.043 183.833 545.37 176.853 544.782 169.775C544.2 162.789 543.803 155.79 543.313 148.798C543.217 147.418 543.035 146.136 542.846 144.763C543.209 143.35 542.995 141.609 542.892 140.137C542.677 138.395 542.371 136.66 542.242 134.82C541.848 130.502 541.919 126.244 541.616 121.92C541.011 113.271 539.939 104.563 538.966 95.9402C538.726 93.8305 538.394 91.7273 537.253 89.958C536.945 89.5173 536.637 89.0766 536.335 88.7279C536.237 88.6423 536.23 88.5503 536.132 88.4647Z" fill="#8170F2"/>
<path d="M522.065 139.653C522.395 148.321 523.828 156.912 524.611 165.455C525.044 170.325 525.287 175.116 525.537 179.998C525.78 184.789 526.115 189.573 526.358 194.364C526.652 199.891 527.039 205.411 527.333 210.938C527.385 211.674 528.58 211.59 528.529 210.854C527.944 201.187 527.36 191.52 526.867 181.847C526.309 172.548 525.836 163.15 524.541 153.903C523.838 149.145 523.044 144.392 522.531 139.713C522.505 139.345 522.046 139.377 522.065 139.653Z" fill="#D8E5E5"/>
<path d="M525.342 134.986C525.148 137.496 525.499 139.875 525.765 142.353C526.025 144.738 526.284 147.124 526.458 149.608C526.983 154.472 527.417 159.341 527.758 164.218C528.612 173.773 529.288 183.434 530.05 192.996C530.443 198.608 530.738 204.135 531.315 209.735C531.36 210.379 532.371 210.308 532.326 209.664C531.821 199.806 530.948 189.975 530.166 180.136C529.405 170.574 528.636 160.92 527.69 151.371C527.405 148.617 527.212 145.857 526.927 143.104C526.648 140.442 526.455 137.682 525.716 135.052C525.697 134.776 525.421 134.795 525.342 134.986Z" fill="#D8E5E5"/>
<path d="M529.087 134.354C529.684 144.205 530.833 154.017 531.614 163.855C532.389 173.601 532.973 183.268 533.472 193.034C533.773 198.652 533.982 204.278 534.283 209.896C534.335 210.632 535.53 210.549 535.479 209.813C534.566 190.183 533.654 170.554 531.638 151.002C531.061 145.403 530.393 139.81 529.546 134.322C529.435 134.052 529.067 134.078 529.087 134.354Z" fill="#D8E5E5"/>
<path d="M532.351 134.773C532.433 137.263 532.975 139.722 533.241 142.199C533.507 144.677 533.865 147.148 534.13 149.626C534.649 154.397 535.168 159.169 535.503 163.953C536.265 173.515 536.757 183.188 537.335 192.763C537.624 198.198 538.01 203.718 538.39 209.147C538.448 209.975 539.736 209.885 539.678 209.057C538.226 189.65 537.793 170.264 535.607 150.909C535.321 148.156 534.944 145.408 534.567 142.661C534.196 140.006 533.813 137.167 533.08 134.629C532.864 134.182 532.319 134.313 532.351 134.773Z" fill="#D8E5E5"/>
<path d="M536.624 136.415C536.516 138.826 536.782 141.304 536.956 143.788C537.123 146.18 537.297 148.665 537.557 151.05C537.984 155.828 538.417 160.698 538.752 165.482C539.507 174.952 540.269 184.514 540.933 193.991C541.12 196.659 541.306 199.327 541.401 202.002C541.498 203.382 541.496 204.676 541.593 206.056C541.689 207.437 541.694 208.823 541.974 210.19C542.092 210.552 542.644 210.513 542.71 210.139C543.009 207.806 542.651 205.335 542.582 203.029C542.415 200.636 542.333 198.146 542.165 195.754C541.83 190.969 541.489 186.093 541.154 181.309C540.386 171.655 539.624 162.093 538.763 152.445C538.577 149.777 538.298 147.115 538.019 144.454C537.74 141.792 537.639 139.025 537.078 136.291C537.059 136.015 536.697 136.133 536.624 136.415Z" fill="#D8E5E5"/>
<path d="M513.175 114.772C513.175 114.772 518.816 108.842 526.798 108.575M541.102 114.772C536.001 109.908 531.065 108.432 526.798 108.575M526.798 108.575V0" stroke="#0D0842"/>
</svg>
