<svg width="18" height="15" viewBox="0 0 18 15" fill="none" xmlns="http://www.w3.org/2000/svg">
<path d="M12.0271 0.00324168V0H12.8711L13.1794 0.0615919C13.385 0.101578 13.5717 0.15398 13.7394 0.218814C13.9071 0.283647 14.0694 0.359292 14.2263 0.445731C14.3832 0.532171 14.5255 0.620247 14.6532 0.709928C14.7798 0.79854 14.8934 0.892548 14.9941 0.991955C15.0936 1.09245 15.2489 1.11838 15.4599 1.06975C15.6709 1.02113 15.8981 0.953589 16.1416 0.86715C16.385 0.78071 16.6258 0.68346 16.8638 0.575399C17.1019 0.467337 17.2469 0.398727 17.2988 0.369552C17.3497 0.339307 17.3768 0.323098 17.38 0.320926L17.3832 0.316064L17.3995 0.30796L17.4157 0.299856L17.4319 0.291751L17.4482 0.283647L17.4514 0.278785L17.4563 0.275543L17.4612 0.272301L17.4644 0.267439L17.4806 0.262576L17.4968 0.259335L17.4936 0.283647L17.4887 0.30796L17.4806 0.332272L17.4725 0.356585L17.4644 0.372793L17.4563 0.389002L17.4482 0.413314C17.4427 0.429523 17.4373 0.451129 17.4319 0.478148C17.4265 0.505167 17.3751 0.613213 17.2777 0.802316C17.1803 0.99142 17.0586 1.18321 16.9125 1.37771C16.7665 1.57222 16.6355 1.71916 16.5198 1.81858C16.4029 1.91908 16.3255 1.98931 16.2876 2.02929C16.2498 2.07035 16.2038 2.10816 16.1497 2.14275L16.0685 2.19624L16.0523 2.20434L16.0361 2.21245L16.0328 2.21731L16.028 2.22055L16.0231 2.22379L16.0198 2.22866L16.0036 2.23676L15.9874 2.24486L15.9841 2.24973L15.9793 2.25297L15.9744 2.25621L15.9711 2.26107L15.9679 2.26594L15.963 2.26918L15.9582 2.27242L15.9549 2.27728H16.0361L16.4905 2.18003C16.7935 2.1152 17.083 2.03686 17.3589 1.94501L17.7971 1.79913L17.8458 1.78292L17.8702 1.77482L17.8864 1.76672L17.9026 1.75861L17.9188 1.75051L17.9351 1.7424L17.9675 1.73754L18 1.7343V1.76672L17.9919 1.76996L17.9838 1.77482L17.9805 1.77968L17.9757 1.78292L17.9708 1.78617L17.9675 1.79103L17.9643 1.79589L17.9594 1.79913L17.9546 1.80237L17.9513 1.80724L17.9481 1.8121L17.9432 1.81534L17.9351 1.83155L17.927 1.84776L17.9221 1.851C17.9199 1.85424 17.8512 1.94608 17.716 2.12654C17.5807 2.30808 17.5077 2.39991 17.4968 2.40209C17.486 2.40533 17.4709 2.42154 17.4514 2.45071C17.433 2.48096 17.3183 2.60145 17.1073 2.81216C16.8963 3.02287 16.6897 3.21033 16.4873 3.37459C16.2839 3.53992 16.1811 3.74306 16.1789 3.98403C16.1757 4.22391 16.1632 4.49514 16.1416 4.79769C16.1199 5.10025 16.0794 5.42711 16.0198 5.7783C15.9603 6.12949 15.8684 6.52659 15.7439 6.96962C15.6195 7.41264 15.468 7.84487 15.2894 8.26629C15.1109 8.68771 14.9243 9.0659 14.7295 9.40088C14.5347 9.73586 14.3562 10.0195 14.1939 10.2518C14.0316 10.4841 13.8666 10.7029 13.6988 10.9083C13.5311 11.1136 13.319 11.3448 13.0626 11.602C12.8051 11.8581 12.6644 11.9985 12.6406 12.0234C12.6157 12.0472 12.5097 12.1358 12.3225 12.2892C12.1363 12.4437 11.9362 12.5982 11.7219 12.7528C11.5088 12.9062 11.3129 13.0343 11.1344 13.1369C10.9558 13.2396 10.7405 13.3568 10.4884 13.4886C10.2373 13.6215 9.96573 13.7447 9.67358 13.8582C9.38142 13.9716 9.07304 14.077 8.74842 14.1743C8.42381 14.2715 8.11001 14.3471 7.80703 14.4012C7.50407 14.4552 7.16051 14.5011 6.77637 14.5389L6.20018 14.5957V14.6038H5.14518V14.5957L5.00721 14.5876C4.91525 14.5822 4.8395 14.5768 4.77998 14.5714C4.72048 14.566 4.49594 14.5362 4.1064 14.4822C3.71686 14.4282 3.41119 14.3742 3.18936 14.3201C2.96755 14.2661 2.63751 14.1634 2.19928 14.0122C1.76105 13.8609 1.38611 13.708 1.07448 13.5535C0.763937 13.4 0.569167 13.3028 0.490171 13.2617C0.412263 13.2217 0.324617 13.172 0.227232 13.1126L0.0811542 13.0235L0.0779243 13.0186L0.0730388 13.0154L0.0681695 13.0121L0.0649234 13.0072L0.0486925 12.9991L0.0324617 12.991L0.0292317 12.9862L0.0243463 12.9829L0.019477 12.9797L0.0162308 12.9748L0.0130009 12.97L0.00811542 12.9667H0V12.9343L0.0162308 12.9376L0.0324617 12.9424L0.1055 12.9505C0.154193 12.9559 0.28675 12.964 0.503156 12.9748C0.719578 12.9856 0.949504 12.9856 1.19297 12.9748C1.43643 12.964 1.68531 12.9397 1.93959 12.9019C2.19387 12.8641 2.49414 12.7992 2.8404 12.7074C3.18667 12.6155 3.50479 12.5064 3.79479 12.38C4.08369 12.2525 4.28927 12.1574 4.41156 12.0947C4.53274 12.0331 4.71777 11.9186 4.96664 11.7511L5.33995 11.4999L5.34319 11.495L5.34806 11.4918L5.35295 11.4885L5.35618 11.4837L5.35942 11.4788L5.36429 11.4756L5.36918 11.4723L5.37241 11.4674L5.38864 11.4626L5.40487 11.4593L5.40812 11.4431L5.41298 11.4269L5.41787 11.4237L5.4211 11.4188L5.29125 11.4107C5.20469 11.4053 5.12083 11.3999 5.03968 11.3945C4.95852 11.3891 4.83139 11.3648 4.65825 11.3216C4.48513 11.2783 4.29848 11.2135 4.09829 11.1271C3.89811 11.0406 3.70334 10.938 3.51398 10.8191C3.32463 10.7003 3.18774 10.6014 3.10334 10.5225C3.02002 10.4447 2.91181 10.3345 2.77872 10.1918C2.64671 10.0481 2.53201 9.90063 2.43463 9.74936C2.33724 9.59808 2.24419 9.42355 2.15547 9.22583L2.02074 8.93083L2.01262 8.90652L2.00451 8.88221L1.99964 8.866L1.99639 8.84979L2.02074 8.85303L2.04509 8.85789L2.22362 8.88221C2.34266 8.89842 2.52932 8.90381 2.78359 8.89842C3.03788 8.89302 3.21371 8.88221 3.31109 8.866C3.40848 8.84979 3.46799 8.83898 3.48963 8.83358L3.52209 8.82548L3.56267 8.81737L3.60325 8.80927L3.60649 8.80441L3.61136 8.80117L3.61625 8.79792L3.61948 8.79306L3.58702 8.78496L3.55455 8.77685L3.52209 8.76875L3.48963 8.76064L3.45717 8.75254C3.43553 8.74714 3.39767 8.73633 3.34355 8.72012C3.28946 8.70392 3.14338 8.64448 2.90532 8.54183C2.66728 8.43918 2.47791 8.33923 2.33724 8.24198C2.19622 8.14444 2.06176 8.03778 1.93472 7.92267C1.80812 7.80597 1.66908 7.65577 1.51758 7.47208C1.3661 7.28839 1.23085 7.07497 1.11181 6.83184C0.992792 6.58872 0.903522 6.3564 0.844004 6.13488C0.784724 5.91467 0.745615 5.68952 0.727158 5.46223L0.697926 5.12186L0.714157 5.1251L0.730388 5.12996L0.746619 5.13807L0.762849 5.14617L0.77908 5.15427L0.795311 5.16238L1.04689 5.27584C1.21462 5.35148 1.42291 5.41632 1.67178 5.47034C1.92066 5.52436 2.06943 5.55409 2.11812 5.55948L2.19116 5.56759H2.33724L2.33401 5.56273L2.32913 5.55948L2.32426 5.55624L2.32101 5.55138L2.31778 5.54652L2.31289 5.54328L2.30803 5.54003L2.30478 5.53517L2.28855 5.52707L2.27232 5.51896L2.26909 5.5141L2.2642 5.51086L2.25933 5.50762L2.25609 5.50275L2.23986 5.49465L2.22362 5.48655L2.22039 5.48168C2.21715 5.47951 2.17061 5.44494 2.08079 5.37795C1.99206 5.30987 1.89901 5.22181 1.80162 5.11375C1.70424 5.00569 1.60685 4.89223 1.50947 4.77338C1.4119 4.65425 1.32501 4.52679 1.24977 4.39248C1.17404 4.25741 1.09396 4.08559 1.00956 3.87705C0.926245 3.66958 0.862945 3.4605 0.819657 3.24979C0.776386 3.03908 0.75204 2.83107 0.746619 2.62576C0.741214 2.42045 0.746619 2.24486 0.762849 2.09899C0.77908 1.95311 0.811542 1.78832 0.860234 1.60463C0.908927 1.42094 0.979271 1.22644 1.07124 1.02113L1.2092 0.71317L1.21731 0.688857L1.22543 0.664545L1.23031 0.661303L1.23354 0.656441L1.23679 0.651578L1.24166 0.648336L1.24654 0.651578L1.24977 0.656441L1.25302 0.661303L1.25789 0.664545L1.26278 0.667786L1.26601 0.672649L1.26925 0.677511L1.27412 0.680753L1.28224 0.696962L1.29035 0.71317L1.29524 0.716412L1.29847 0.721274L1.51758 0.9644C1.66366 1.12648 1.8368 1.30748 2.03697 1.50738C2.23716 1.70728 2.34807 1.81101 2.3697 1.81858C2.39135 1.82722 2.41839 1.85207 2.45086 1.89314C2.48332 1.93313 2.59153 2.02876 2.77547 2.18003C2.95943 2.3313 3.20019 2.50691 3.49775 2.7068C3.79532 2.9067 4.12534 3.10391 4.48783 3.29841C4.85033 3.49291 5.23987 3.6685 5.65645 3.82518C6.07304 3.98187 6.3652 4.08452 6.53291 4.13314C6.70064 4.18177 6.98738 4.2439 7.39315 4.31954C7.79892 4.39519 8.10461 4.44381 8.31019 4.46542C8.51579 4.48702 8.65646 4.49945 8.73219 4.5027L8.84581 4.50594L8.84258 4.48163L8.83769 4.45731L8.80523 4.25471C8.78359 4.11964 8.77277 3.93054 8.77277 3.68741C8.77277 3.44429 8.79171 3.22008 8.82958 3.01476C8.86746 2.80945 8.92427 2.60145 9 2.39074C9.07575 2.18003 9.14988 2.01091 9.22236 1.88342C9.29595 1.75699 9.39225 1.61274 9.51127 1.45065C9.63031 1.28857 9.7845 1.12109 9.97385 0.948192C10.1632 0.775297 10.3796 0.621317 10.6231 0.486252C10.8665 0.351188 11.0911 0.248524 11.2967 0.178292C11.5023 0.108061 11.6754 0.0621268 11.8161 0.040521C11.9567 0.0189152 12.0271 0.00648336 12.0271 0.00324168Z" fill="#8170F2"/>
</svg>
